<?xml version="1.0" encoding="UTF-8" standalone="no"?>
<svg
   xmlns:dc="http://purl.org/dc/elements/1.1/"
   xmlns:cc="http://creativecommons.org/ns#"
   xmlns:rdf="http://www.w3.org/1999/02/22-rdf-syntax-ns#"
   xmlns:svg="http://www.w3.org/2000/svg"
   xmlns="http://www.w3.org/2000/svg"
   xmlns:sodipodi="http://sodipodi.sourceforge.net/DTD/sodipodi-0.dtd"
   xmlns:inkscape="http://www.inkscape.org/namespaces/inkscape"
   inkscape:version="1.0 (4035a4fb49, 2020-05-01)"
   sodipodi:docname="enter.svg"
   id="svg79"
   version="1.1"
   fill="none"
   viewBox="0 0 421 345"
   height="345"
   width="421">
  <metadata
     id="metadata83">
    <rdf:RDF>
      <cc:Work
         rdf:about="">
        <dc:format>image/svg+xml</dc:format>
        <dc:type
           rdf:resource="http://purl.org/dc/dcmitype/StillImage" />
      </cc:Work>
    </rdf:RDF>
  </metadata>
  <sodipodi:namedview
     inkscape:current-layer="svg79"
     inkscape:window-maximized="1"
     inkscape:window-y="-8"
     inkscape:window-x="-8"
     inkscape:cy="254.00789"
     inkscape:cx="103.43359"
     inkscape:zoom="1.2517815"
     showgrid="false"
     id="namedview81"
     inkscape:window-height="1057"
     inkscape:window-width="1846"
     inkscape:pageshadow="2"
     inkscape:pageopacity="0"
     guidetolerance="10"
     gridtolerance="10"
     objecttolerance="10"
     borderopacity="1"
     bordercolor="#666666"
     pagecolor="#ffffff" />
  <g
     transform="translate(0.03633192,0.1499939)"
     clip-path="url(#clip0-7)"
     id="g48">
    <path
       d="M 7.00041,294.5 234.3,263.4 c 0.8,-0.2 1.7,-0.3 2.5,-0.3 L 413,277 c 8,0.2 12.4,18.4 1.2,22.5 0,0 -147.2,42.7 -148.1,43 -0.5,0.2 -1.1,0.4 -1.7,0.5 -5.8,1.8 -12,2.1 -18,1.3 L 9.00041,312.7 c -10.7,-0.2 -12.4,-15.5 -2,-18.2 z"
       fill="#ffffff"
       id="path2-7" />
    <path
       d="m 67.0006,221.7 c 27.8351,0 50.4004,-22.565 50.4004,-50.4 0,-27.835 -22.5653,-50.4 -50.4004,-50.4 -27.8352,0 -50.4,22.565 -50.4,50.4 0,27.835 22.5648,50.4 50.4,50.4 z"
       fill="#ff9d6c"
       id="path4-6" />
    <path
       d="m 131.8,145 c 13.421,0 24.3,-10.879 24.3,-24.3 0,-13.421 -10.879,-24.3 -24.3,-24.3 -13.421,0 -24.3,10.879 -24.3,24.3 0,13.421 10.879,24.3 24.3,24.3 z"
       fill="#ff9d6c"
       id="path6-6" />
    <path
       d="m 90.1006,99 c 8.8365,0 16.0004,-7.1634 16.0004,-16 0,-8.8366 -7.1639,-16 -16.0004,-16 -8.8366,0 -16,7.1634 -16,16 0,8.8366 7.1634,16 16,16 z"
       fill="#ff9d6c"
       id="path8-2" />
    <path
       d="m 279.5,81 c 14.525,0 26.3,-11.7749 26.3,-26.3 0,-14.5251 -11.775,-26.3 -26.3,-26.3 -14.525,0 -26.3,11.7749 -26.3,26.3 0,14.5251 11.775,26.3 26.3,26.3 z"
       fill="#ff9d6c"
       id="path10-9" />
    <path
       d="m 305.801,25.4 c 7.014,0 12.7,-5.686 12.7,-12.7 0,-7.01402 -5.686,-12.7 -12.7,-12.7 -7.014,0 -12.7,5.68598 -12.7,12.7 0,7.014 5.686,12.7 12.7,12.7 z"
       fill="#ff9d6c"
       id="path12-4" />
    <path
       d="m 242.901,43.8 c 4.584,0 8.3,-3.716 8.3,-8.3 0,-4.584 -3.716,-8.3 -8.3,-8.3 -4.584,0 -8.3,3.716 -8.3,8.3 0,4.584 3.716,8.3 8.3,8.3 z"
       fill="#ff9d6c"
       id="path14-5" />
    <path
       d="m 263.301,151.4 c -8,9.4 -22.1,32.1 -5.1,62.3 3.5,6.2 4.2,13.6 1.6,20.3 -0.9,2.2 -2.1,4.7 -3.8,7.4 l 0.2,10.9 h 29.3 c 0,0 1.4,-20.8 -8.6,-33.3 -9.9,-12.5 3.7,-19.5 3.7,-19.5 0,0 1.2,-33.1 -6.8,-47.1 -2.1,-3.9 -7.6,-4.4 -10.5,-1 z"
       fill="#546f72"
       id="path16-6" />
    <path
       d="m 291.901,179.8 c 0,0 5.2,-16.7 3.6,-25.5 -1.6,-8.8 14.8,-19 21.4,10.3 6.6,29.3 -2.8,50.9 -2.8,50.9 l -7.4,43.9 -14.8,0.9 -4.8,-16 z"
       fill="#546f72"
       id="path18-3" />
    <path
       d="m 247.301,252.3 c 0,0 -1.1,-4.9 2.4,-14.9 3.4,-10 -3.5,-14.5 -6.8,-19.7 -3.3,-5.1 -6.2,-23.3 -1,-26.5 5.2,-3.2 19.2,10.3 18.6,24.7 -0.6,14.4 -4.4,17.4 0.1,23.5 4.5,6 4.8,12.8 4.8,12.8 h -18.1 z"
       fill="#2c5b66"
       id="path20-7" />
    <path
       d="m 275.801,255.7 c 0,0 -3.4,-13 4.1,-23.6 5.5,-7.8 1.6,-20 -0.8,-25.9 -1.7,-4.2 -2.7,-8.7 -2.8,-13.2 -0.1,-5.7 0.7,-13.7 3.8,-23.5 1.3,-4.2 6,-5.7 8.5,-2.1 5.6,8.2 12.6,28.5 9,44.7 -3.7,16.2 -11.1,17.6 -1,27 10.1,9.4 1.3,21.1 1.3,21.1 z"
       fill="#2c5b66"
       id="path22-3" />
    <path
       d="m 301.701,257.6 c 0,0 -2.1,-10.2 5.9,-18.3 5.2,-5.3 3.6,-12.3 1.9,-16.6 -3.1,-7.7 -1.8,-16.7 3.9,-22.8 2.3,-2.4 5.3,-4.9 9.3,-7.2 2.2,-1.3 5.1,-0.1 5.8,2.3 1.2,4 -1.1,16.3 -5.2,25.3 -4,9 -8.6,10.4 -2.1,22.4 2.5,4.6 2.7,14.9 -4.9,20.2 -7.5,5.4 -14.6,-5.3 -14.6,-5.3 z"
       fill="#2c5b66"
       id="path24-8" />
    <path
       d="m 305.601,158.2 c 1.9,8.9 2.6,18.1 2.2,27.3 -0.1,4.6 -0.7,9.2 -1.6,13.7 -0.2,1.1 -0.4,2.3 -0.7,3.4 l -0.9,3.3 c -0.3,1.1 -0.7,2.2 -1.1,3.3 l -1.1,3.2 c -0.8,2.1 -1.3,4.2 -1.7,6.4 -0.4,2.2 -0.6,4.4 -0.7,6.7 -0.2,4.5 0.1,9 0.7,13.5 0.6,4.5 1.6,8.9 2.9,13.3 1.2,4.4 2.7,8.7 4.4,12.9 -4.2,-8.1 -7.2,-16.9 -8.8,-25.9 -0.4,-2.3 -0.7,-4.6 -0.9,-6.9 -0.2,-2.3 -0.3,-4.6 -0.2,-6.9 0.1,-2.3 0.3,-4.6 0.7,-6.9 0.4,-2.3 1,-4.6 1.8,-6.8 l 1.2,-3.2 c 0.4,-1.1 0.8,-2.1 1.1,-3.2 l 0.9,-3.2 c 0.3,-1.1 0.5,-2.2 0.8,-3.3 1,-4.4 1.6,-8.9 1.9,-13.4 0.3,-4.5 0.4,-9.1 0.3,-13.6 -0.3,-4.6 -0.7,-9.2 -1.2,-13.7 z"
       fill="#2c5b66"
       id="path26-8" />
    <path
       d="m 267.7,164.4 c -0.6,3.8 -1.2,7.6 -1.6,11.4 -0.5,3.8 -0.9,7.6 -1.2,11.4 -0.3,3.8 -0.6,7.6 -0.5,11.4 0,1.9 0.1,3.8 0.3,5.6 0,0.5 0.1,0.9 0.2,1.4 l 0.3,1.4 c 0.2,0.9 0.5,1.8 0.8,2.7 1.1,3.6 2.6,7.1 4.1,10.7 1.4,3.6 2.9,7.3 3.2,11.3 0.2,2 0.2,4 -0.1,5.9 -0.2,1.9 -0.6,3.9 -1.1,5.8 -0.5,1.9 -1.2,3.7 -2.1,5.5 -0.8,1.7 -1.8,3.4 -3.1,4.9 2.1,-3.2 3.4,-6.9 4.2,-10.6 0.4,-1.9 0.6,-3.7 0.7,-5.6 0.1,-1.9 0.1,-3.8 -0.2,-5.6 -0.4,-3.7 -1.8,-7.2 -3.4,-10.7 -1.5,-3.5 -3.1,-7.1 -4.2,-10.8 -0.3,-0.9 -0.6,-1.9 -0.8,-2.8 l -0.3,-1.5 c -0.1,-0.5 -0.2,-1 -0.2,-1.5 -0.2,-2 -0.3,-3.9 -0.3,-5.9 0,-3.9 0.4,-7.8 0.8,-11.6 1.1,-7.7 2.6,-15.3 4.5,-22.8 z"
       fill="#2c5b66"
       id="path28-9" />
    <path
       d="m 323.901,246.6 c 0,32.2 -17.4,46.8 -38.9,46.8 -21.5,0 -39,-14.6 -39,-46.8"
       fill="#ff9d6c"
       id="path30-6" />
    <path
       d="m 126.101,185.2 v -47.8 c 0,-1.2 -1,-2.2 -2.2,-2.2 h -11.6 c -1.2,0 -2.2,1 -2.2,2.2 v 47.8 c -7.3,3.1 -12.5004,10.4 -12.5004,18.9 v 85.7 c 0,3.1 2.5004,5.6 5.6004,5.6 h 29.9 c 3.1,0 5.6,-2.5 5.6,-5.6 v -85.7 c -0.1,-8.5 -5.2,-15.7 -12.6,-18.9 z"
       fill="#2c5b66"
       id="path32-3" />
    <path
       d="m 138.6,228.7 h -34.2 v 33.1 h 34.2 z"
       fill="#ff9d6c"
       id="path34-9" />
    <path
       d="m 127.101,210.2 v 34.6 c 0,7 5.2,12.8 12,13.6 V 292 h -5.4 c -0.9,0 -1.7,0.8 -1.7,1.7 0,0.9 0.8,1.7 1.7,1.7 h 14.3 c 0.9,0 1.7,-0.8 1.7,-1.7 0,-0.9 -0.8,-1.7 -1.7,-1.7 h -5.4 v -33.6 c 6.8,-0.8 12,-6.6 12,-13.6 v -34.6 z"
       fill="#ededed"
       id="path36-0" />
    <path
       d="m 130.4,231.9 v 11.6 c 0,5.8 4.7,10.4 10.4,10.4 5.8,0 10.4,-4.7 10.4,-10.4 v -11.6 z"
       fill="#2c5b66"
       id="path38-4" />
    <path
       d="m 286.5,291.7 h -4.9 c 0,-38 -28.9,-69.3 -65.9,-73.1 0,-0.2 0,-0.5 0,-0.7 0,-4.2 -3.4,-7.6 -7.6,-7.6 -4.2,0 -7.6,3.4 -7.6,7.6 0,0.2 0,0.5 0,0.7 -37,3.8 -65.9,35 -65.9,73.1 h -4.9 c -3.2,0 -5.7,2.6 -5.7,5.7 0,3.1 2.6,5.7 5.7,5.7 h 156.6 c 3.2,0 5.7,-2.6 5.7,-5.7 0,-3.1 -2.4,-5.7 -5.5,-5.7 z"
       fill="#8e8e8e"
       id="path40-2" />
    <path
       d="m 240.4,237.4 c 0,0 23.1,9.9 27.6,35.8"
       stroke="#ffffff"
       stroke-width="4"
       stroke-miterlimit="10"
       stroke-linecap="round"
       id="path42-9" />
    <path
       d="m 268.9,225.6 v 34.6 c 0,7 5.2,12.8 12,13.6 v 33.6 h -5.4 c -0.9,0 -1.7,0.8 -1.7,1.7 0,0.9 0.8,1.7 1.7,1.7 h 14.3 c 0.9,0 1.7,-0.8 1.7,-1.7 0,-0.9 -0.8,-1.7 -1.7,-1.7 h -5.4 v -33.6 c 6.8,-0.8 12,-6.6 12,-13.6 v -34.6 z"
       fill="#ededed"
       id="path44-8" />
    <path
       d="M 272.2,247.4 V 259 c 0,5.8 4.7,10.4 10.4,10.4 5.7,0 10.4,-4.7 10.4,-10.4 v -11.6 z"
       fill="#2c5b66"
       id="path46-4" />
  </g>
  <defs
     id="defs77">
    <clipPath
       id="clip0">
      <rect
         id="rect74"
         fill="white"
         height="344.7"
         width="420.9" />
    </clipPath>
    <clipPath
       id="clip0-7">
      <rect
         y="0"
         x="0"
         width="420.89999"
         height="344.70001"
         fill="#ffffff"
         id="rect50" />
    </clipPath>
  </defs>
</svg>
