<?xml version="1.0" encoding="UTF-8" standalone="no"?>
<svg
   xmlns:dc="http://purl.org/dc/elements/1.1/"
   xmlns:cc="http://creativecommons.org/ns#"
   xmlns:rdf="http://www.w3.org/1999/02/22-rdf-syntax-ns#"
   xmlns:svg="http://www.w3.org/2000/svg"
   xmlns="http://www.w3.org/2000/svg"
   xmlns:sodipodi="http://sodipodi.sourceforge.net/DTD/sodipodi-0.dtd"
   xmlns:inkscape="http://www.inkscape.org/namespaces/inkscape"
   inkscape:version="1.0 (4035a4fb49, 2020-05-01)"
   sodipodi:docname="homed1.svg"
   id="svg71"
   version="1.1"
   fill="none"
   viewBox="0 0 106.87842 142.88004"
   height="142.88004"
   width="106.87842">
  <metadata
     id="metadata75">
    <rdf:RDF>
      <cc:Work
         rdf:about="">
        <dc:format>image/svg+xml</dc:format>
        <dc:type
           rdf:resource="http://purl.org/dc/dcmitype/StillImage" />
        <dc:title></dc:title>
      </cc:Work>
    </rdf:RDF>
  </metadata>
  <sodipodi:namedview
     inkscape:current-layer="svg71"
     inkscape:window-maximized="1"
     inkscape:window-y="-8"
     inkscape:window-x="-8"
     inkscape:cy="92.027741"
     inkscape:cx="-1.0609092"
     inkscape:zoom="2.3421053"
     fit-margin-bottom="0"
     fit-margin-right="0"
     fit-margin-left="0"
     fit-margin-top="0"
     showgrid="false"
     id="namedview73"
     inkscape:window-height="1057"
     inkscape:window-width="1846"
     inkscape:pageshadow="2"
     inkscape:pageopacity="0"
     guidetolerance="10"
     gridtolerance="10"
     objecttolerance="10"
     borderopacity="1"
     bordercolor="#666666"
     pagecolor="#ffffff" />
  <defs
     id="defs69">
    <clipPath
       id="clip0">
      <rect
         y="0"
         x="0"
         id="rect66"
         transform="rotate(-5.73505,149.02001,7.46435)"
         fill="#ffffff"
         height="175.377"
         width="149.395" />
    </clipPath>
    <clipPath
       id="clip0-0">
      <rect
         y="0"
         x="0"
         width="115.76"
         height="135.505"
         fill="#ffffff"
         transform="rotate(-7.64454,115.24639,7.69965)"
         id="rect141" />
    </clipPath>
  </defs>
  <g
     transform="translate(-10.492749,-3.7145078)"
     id="g186"
     style="fill:none">
    <g
       clip-path="url(#clip0-0)"
       id="g139">
      <path
         d="m 101.53,16.5525 15.357,114.4155 c 0.36,2.683 -1.553,5.189 -4.236,5.549 l -71.9635,9.659 c -2.6828,0.36 -5.1888,-1.552 -5.5489,-4.235 L 19.7818,27.5247 c -0.3601,-2.6828 1.5527,-5.1888 4.2356,-5.5489 l 71.9637,-9.6589 c 2.6828,-0.3601 5.1889,1.5527 5.5489,4.2356 z"
         fill="#f9f9f9"
         stroke="#d8d8d8"
         stroke-width="0.75"
         stroke-miterlimit="10"
         id="path77" />
      <path
         d="m 44.4707,55.8607 c 5.2295,-0.702 8.8999,-5.5103 8.198,-10.7399 -0.7019,-5.2295 -5.5103,-8.8999 -10.7398,-8.198 -5.2296,0.7019 -8.8999,5.5103 -8.198,10.7399 0.7019,5.2295 5.5103,8.8999 10.7398,8.198 z"
         fill="#5b5b5b"
         id="path79" />
      <path
         d="m 59.8086,39.6641 c 0.8834,-0.6005 1.8091,-0.8854 2.8926,-1.1915 0.9257,-0.2849 2.0092,-0.591 2.9773,-0.5603 0.9681,0.0307 2.1151,0.1981 3.0832,0.2288 0.9469,-0.1271 2.0516,-0.2754 2.9561,-0.7181 0.9046,-0.4427 1.9881,-0.7488 2.935,-0.8759 0.9257,-0.2849 2.0304,-0.4332 2.9773,-0.5603 2.0728,-0.1175 3.9877,-0.2139 6.1452,0.2998 l 0.0212,0.1579 c -1.7879,1.0432 -3.7971,1.6342 -5.8275,2.0674 -0.9469,0.1271 -2.0516,0.2754 -3.0197,0.2446 -0.9469,0.1271 -2.0728,0.1176 -3.062,-0.071 -0.9681,-0.0307 -2.094,-0.0402 -3.0409,0.0869 -0.9257,0.2849 -1.988,0.7488 -2.9137,1.0337 -0.9257,0.2849 -2.0516,0.2753 -2.9985,0.4024 -0.9681,-0.0307 -2.094,-0.0402 -3.1044,-0.3866 z"
         fill="#5b5b5b"
         id="path81" />
      <g
         opacity="0.5"
         id="g85">
        <path
           opacity="0.5"
           d="m 60.4652,44.5564 c 2.5982,-0.9914 5.102,-1.4881 7.8061,-1.6904 1.2837,-0.0116 2.7252,-0.0445 3.9877,-0.2139 1.2625,-0.1695 2.6829,-0.3601 3.9242,-0.6874 2.6405,-0.6757 5.1443,-1.1724 7.8272,-1.5325 2.6829,-0.3601 5.2291,-0.5412 7.9755,-0.4279 l 0.0212,0.1579 c -2.6193,0.8335 -5.102,1.488 -7.7849,1.8481 -2.6828,0.3601 -5.2079,0.699 -7.9331,0.7435 -1.2837,0.0116 -2.704,0.2023 -3.9666,0.3717 -1.2625,0.1695 -2.6405,0.6758 -3.8818,1.003 -2.6617,0.5179 -5.2079,0.699 -7.9543,0.5857 z"
           fill="#5b5b5b"
           id="path83" />
      </g>
      <g
         opacity="0.5"
         id="g89">
        <path
           opacity="0.5"
           d="m 60.8888,47.7127 c 2.5981,-0.9914 5.102,-1.4881 7.806,-1.6904 1.2837,-0.0116 2.7253,-0.0445 3.9878,-0.2139 1.2625,-0.1695 2.6828,-0.3601 3.9242,-0.6874 2.6405,-0.6757 5.1443,-1.1724 7.8272,-1.5325 2.6828,-0.3601 5.2291,-0.5412 7.9755,-0.4278 l 0.0211,0.1578 c -2.6193,0.8335 -5.1019,1.488 -7.7848,1.8481 -2.6829,0.3601 -5.2079,0.699 -7.9331,0.7435 -1.2837,0.0116 -2.7041,0.2023 -3.9666,0.3717 -1.2625,0.1695 -2.6405,0.6758 -3.8818,1.003 -2.6617,0.5179 -5.2079,0.699 -7.9543,0.5857 z"
           fill="#5b5b5b"
           id="path87" />
      </g>
      <path
         d="m 47.6269,79.3751 c 5.2296,-0.7019 8.8999,-5.5103 8.198,-10.7398 -0.7019,-5.2295 -5.5102,-8.8999 -10.7398,-8.198 -5.2295,0.7019 -8.8999,5.5103 -8.198,10.7398 0.7019,5.2296 5.5103,8.8999 10.7398,8.198 z"
         fill="#5b5b5b"
         id="path91" />
      <path
         d="m 62.9859,63.3364 c 0.8833,-0.6006 1.809,-0.8855 2.8925,-1.1916 0.9257,-0.2849 2.0093,-0.591 2.9773,-0.5602 0.9681,0.0307 2.1152,0.1981 3.0833,0.2288 0.9468,-0.1271 2.0516,-0.2754 2.9561,-0.7181 0.9045,-0.4427 1.988,-0.7488 2.9349,-0.8759 0.9257,-0.2849 2.0304,-0.4332 2.9773,-0.5603 2.0728,-0.1175 3.9878,-0.2139 6.1453,0.2998 l 0.0212,0.1578 c -1.7879,1.0433 -3.7972,1.6343 -5.8276,2.0675 -0.9469,0.1271 -2.0516,0.2753 -3.0196,0.2446 -0.9469,0.1271 -2.0728,0.1176 -3.0621,-0.071 -0.968,-0.0307 -2.0939,-0.0403 -3.0408,0.0868 -0.9257,0.2849 -1.9881,0.7489 -2.9138,1.0338 -0.9257,0.2849 -2.0516,0.2753 -2.9985,0.4024 -0.968,-0.0307 -2.0939,-0.0402 -3.1044,-0.3866 z"
         fill="#5b5b5b"
         id="path93" />
      <g
         opacity="0.5"
         id="g97">
        <path
           opacity="0.5"
           d="m 63.6215,68.0708 c 2.5981,-0.9913 5.102,-1.4881 7.806,-1.6903 1.2837,-0.0117 2.7252,-0.0445 3.9877,-0.2139 1.2626,-0.1695 2.6829,-0.3601 3.9242,-0.6874 2.6405,-0.6757 5.1444,-1.1725 7.8273,-1.5326 2.6828,-0.36 5.229,-0.5411 7.9754,-0.4278 l 0.0212,0.1578 c -2.6193,0.8336 -5.102,1.4881 -7.7848,1.8482 -2.6829,0.3601 -5.2079,0.699 -7.9331,0.7435 -1.2838,0.0116 -2.7041,0.2022 -3.9666,0.3717 -1.2625,0.1695 -2.6405,0.6757 -3.8818,1.003 -2.6617,0.5179 -5.2079,0.699 -7.9543,0.5856 z"
           fill="#5b5b5b"
           id="path95" />
      </g>
      <g
         opacity="0.5"
         id="g101">
        <path
           opacity="0.5"
           d="m 64.0451,71.2271 c 2.5981,-0.9913 5.102,-1.488 7.806,-1.6903 1.2837,-0.0117 2.7252,-0.0445 3.9877,-0.2139 1.2626,-0.1695 2.6829,-0.3601 3.9242,-0.6874 2.6405,-0.6757 5.1444,-1.1725 7.8272,-1.5325 2.6829,-0.3601 5.2291,-0.5412 7.9755,-0.4279 l 0.0212,0.1578 c -2.6193,0.8336 -5.102,1.4881 -7.7848,1.8482 -2.6829,0.3601 -5.2079,0.699 -7.9332,0.7435 -1.2837,0.0116 -2.704,0.2022 -3.9665,0.3717 -1.2625,0.1695 -2.6405,0.6757 -3.8819,1.003 -2.6616,0.5179 -5.2079,0.699 -7.9543,0.5856 z"
           fill="#5b5b5b"
           id="path99" />
      </g>
      <path
         d="m 50.783,102.89 c 5.2295,-0.702 8.8999,-5.5107 8.1979,-10.7402 -0.7019,-5.2296 -5.5102,-8.8999 -10.7398,-8.198 -5.2295,0.7019 -8.8999,5.5103 -8.198,10.7398 0.7019,5.2295 5.5103,8.8994 10.7399,8.1984 z"
         fill="#5b5b5b"
         id="path103" />
      <path
         d="m 66.1419,86.8508 c 0.8833,-0.6005 1.809,-0.8854 2.8925,-1.1915 0.9258,-0.2849 2.0093,-0.591 2.9774,-0.5603 0.968,0.0308 2.1151,0.1981 3.0832,0.2288 0.9469,-0.1271 2.0516,-0.2753 2.9561,-0.7181 0.9045,-0.4427 1.988,-0.7488 2.9349,-0.8759 0.9257,-0.2849 2.0304,-0.4331 2.9773,-0.5602 2.0728,-0.1176 3.9878,-0.2139 6.1453,0.2998 l 0.0212,0.1578 c -1.7879,1.0432 -3.7971,1.6342 -5.8276,2.0674 -0.9468,0.1271 -2.0515,0.2754 -3.0196,0.2447 -0.9469,0.127 -2.0728,0.1175 -3.0621,-0.071 -0.968,-0.0308 -2.0939,-0.0403 -3.0408,0.0868 -0.9257,0.2849 -1.9881,0.7488 -2.9138,1.0337 -0.9257,0.2849 -2.0516,0.2754 -2.9985,0.4025 -0.968,-0.0308 -2.0939,-0.0403 -3.1044,-0.3867 z"
         fill="#5b5b5b"
         id="path105" />
      <g
         opacity="0.5"
         id="g109">
        <path
           opacity="0.5"
           d="m 66.7775,91.5853 c 2.5981,-0.9914 5.102,-1.4881 7.806,-1.6904 1.2837,-0.0116 2.7252,-0.0444 3.9877,-0.2139 1.2626,-0.1694 2.6829,-0.3601 3.9242,-0.6873 2.6405,-0.6758 5.1444,-1.1725 7.8272,-1.5326 2.6829,-0.3601 5.2291,-0.5412 7.9755,-0.4278 l 0.0212,0.1578 c -2.6193,0.8335 -5.102,1.4881 -7.7848,1.8482 -2.6829,0.3601 -5.2079,0.699 -7.9332,0.7434 -1.2837,0.0117 -2.704,0.2023 -3.9665,0.3718 -1.2625,0.1694 -2.6405,0.6757 -3.8818,1.0029 -2.6617,0.518 -5.2079,0.699 -7.9543,0.5857 z"
           fill="#5b5b5b"
           id="path107" />
      </g>
      <g
         opacity="0.5"
         id="g113">
        <path
           opacity="0.5"
           d="m 67.2011,94.7416 c 2.5981,-0.9914 5.102,-1.4881 7.806,-1.6904 1.2837,-0.0116 2.7252,-0.0444 3.9877,-0.2139 1.2626,-0.1694 2.6829,-0.3601 3.9242,-0.6873 2.6405,-0.6758 5.1444,-1.1725 7.8273,-1.5326 2.6828,-0.3601 5.229,-0.5412 7.9754,-0.4278 l 0.0212,0.1578 c -2.6193,0.8335 -5.102,1.4881 -7.7848,1.8482 -2.6829,0.3601 -5.2079,0.699 -7.9332,0.7434 -1.2837,0.0117 -2.704,0.2023 -3.9665,0.3718 -1.2625,0.1694 -2.6405,0.6757 -3.8818,1.003 -2.6617,0.5179 -5.2079,0.699 -7.9544,0.5856 z"
           fill="#5b5b5b"
           id="path111" />
      </g>
      <path
         d="m 53.8967,126.088 c 5.2296,-0.702 8.8999,-5.51 8.198,-10.739 -0.7019,-5.23 -5.5103,-8.9 -10.7398,-8.198 -5.2295,0.701 -8.8999,5.51 -8.198,10.739 0.7019,5.23 5.5103,8.9 10.7398,8.198 z"
         fill="#5b5b5b"
         id="path115" />
      <path
         d="m 69.2346,109.892 c 0.8834,-0.601 1.8091,-0.886 2.8926,-1.192 0.9257,-0.285 2.0093,-0.591 2.9773,-0.56 0.9681,0.031 2.1152,0.198 3.0832,0.229 0.9469,-0.127 2.0516,-0.276 2.9562,-0.718 0.9045,-0.443 1.988,-0.749 2.9349,-0.876 0.9257,-0.285 2.0304,-0.433 2.9773,-0.56 2.0728,-0.118 3.9878,-0.214 6.1453,0.299 l 0.0211,0.158 c -1.7878,1.043 -3.7971,1.634 -5.8275,2.068 -0.9469,0.127 -2.0516,0.275 -3.0196,0.244 -0.9469,0.127 -2.0728,0.118 -3.0621,-0.071 -0.9681,-0.03 -2.0939,-0.04 -3.0408,0.087 -0.9257,0.285 -1.9881,0.749 -2.9138,1.034 -0.9257,0.285 -2.0516,0.275 -2.9985,0.402 -0.9681,-0.03 -2.0939,-0.04 -3.1044,-0.386 z"
         fill="#5b5b5b"
         id="path117" />
      <g
         opacity="0.5"
         id="g121">
        <path
           opacity="0.5"
           d="m 69.87,114.626 c 2.5981,-0.991 5.102,-1.488 7.806,-1.69 1.2837,-0.012 2.7253,-0.045 3.9878,-0.214 1.2625,-0.169 2.6828,-0.36 3.9242,-0.687 2.6405,-0.676 5.1443,-1.173 7.8272,-1.533 2.6829,-0.36 5.2291,-0.541 7.9758,-0.428 l 0.021,0.158 c -2.6195,0.834 -5.1021,1.488 -7.785,1.848 -2.6828,0.36 -5.2079,0.699 -7.9331,0.744 -1.2837,0.011 -2.704,0.202 -3.9666,0.371 -1.2625,0.17 -2.6405,0.676 -3.8818,1.003 -2.6617,0.518 -5.2079,0.699 -7.9543,0.586 z"
           fill="#5b5b5b"
           id="path119" />
      </g>
      <g
         opacity="0.5"
         id="g125">
        <path
           opacity="0.5"
           d="m 70.2936,117.783 c 2.5981,-0.992 5.102,-1.488 7.806,-1.691 1.2837,-0.011 2.7252,-0.044 3.9878,-0.214 1.2625,-0.169 2.6828,-0.36 3.9242,-0.687 2.6405,-0.676 5.1443,-1.172 7.8272,-1.533 2.6828,-0.36 5.2291,-0.541 7.9752,-0.427 l 0.021,0.157 c -2.6189,0.834 -5.1016,1.488 -7.7844,1.849 -2.6829,0.36 -5.2079,0.699 -7.9331,0.743 -1.2837,0.012 -2.7041,0.202 -3.9666,0.372 -1.2625,0.169 -2.6405,0.675 -3.8818,1.003 -2.6617,0.518 -5.2079,0.699 -7.9543,0.585 z"
           fill="#5b5b5b"
           id="path123" />
      </g>
      <path
         d="m 115.568,18.2028 c -1.757,0.0752 -7.302,0.6587 -10.049,-12.62845 -0.106,-0.78907 -0.98,-1.31442 -1.769,-1.20851 -0.789,0.10591 -1.493,0.84308 -1.387,1.63215 1.105,13.02561 -4.5124,14.26161 -6.3638,14.83141 -0.7891,0.1059 -1.3144,0.9797 -1.2085,1.7688 0.1059,0.789 0.8219,1.3356 1.6321,1.3875 5.1562,0.1112 8.4322,4.17 10.2072,12.6072 0.106,0.7891 0.98,1.3145 1.769,1.2086 0.789,-0.106 1.493,-0.8431 1.387,-1.6322 -0.67,-8.5856 1.42,-13.3645 6.364,-14.8314 0.768,-0.2637 1.314,-0.9797 1.208,-1.7688 -0.285,-0.9257 -1.001,-1.4722 -1.79,-1.3663 z"
         fill="#ff782c"
         id="path127" />
      <path
         d="m 89.5826,23.2971 c 0.7891,-0.1059 1.4935,-0.843 1.3875,-1.6321 -0.5316,-6.355 2.1089,-7.0307 3.0346,-7.3156 0.7679,-0.2637 1.3144,-0.9797 1.2085,-1.7688 -0.1059,-0.7891 -0.8219,-1.3356 -1.7899,-1.3663 -0.7891,0.1059 -3.3354,0.287 -4.6984,-6.27772 C 88.619,4.1475 87.7452,3.62215 86.9561,3.72806 86.167,3.83397 85.4626,4.57114 85.5686,5.36022 86.1214,11.873 83.4809,12.5487 82.534,12.6758 c -0.7891,0.1059 -1.3144,0.9797 -1.2085,1.7688 0.1059,0.7891 0.8219,1.3356 1.6321,1.3875 0.9681,0.0307 3.5355,0.0075 4.8562,6.2565 0.1059,0.7891 0.8219,1.3356 1.7688,1.2085 z"
         fill="#ff782c"
         id="path129" />
      <path
         d="m 99.9762,32.5055 c -0.7891,0.106 -3.1775,0.2659 -4.3404,-6.0044 -0.1059,-0.789 -0.9797,-1.3144 -1.7688,-1.2085 -0.7891,0.1059 -1.4934,0.8431 -1.3875,1.6322 0.4893,6.0393 -1.9934,6.6938 -2.7825,6.7998 -0.7679,0.2637 -1.3144,0.9797 -1.2085,1.7687 0.1059,0.7891 0.8219,1.3357 1.6322,1.3876 0.8102,0.0519 3.3776,0.0286 4.4982,5.9832 0.1059,0.7891 0.9797,1.3144 1.7687,1.2085 0.7891,-0.1059 1.4935,-0.8431 1.3876,-1.6321 -0.4893,-6.0394 1.9934,-6.6939 2.7608,-6.9576 0.768,-0.2638 1.315,-0.9798 1.209,-1.7688 -0.106,-0.7891 -0.98,-1.3145 -1.7688,-1.2086 z"
         fill="#ff782c"
         id="path131" />
      <path
         d="M 44.7489,97.4338 C 42.9918,97.509 37.4471,98.0925 34.6997,84.8053 34.5938,84.0162 33.72,83.4909 32.9309,83.5968 c -0.789,0.1059 -1.4934,0.8431 -1.3875,1.6321 1.1057,13.0256 -4.5121,14.2616 -6.3635,14.8311 -0.7891,0.106 -1.3145,0.98 -1.2085,1.769 0.1059,0.789 0.8219,1.336 1.6321,1.388 5.156,0.111 8.432,4.17 10.207,12.607 0.1059,0.789 0.9797,1.314 1.7688,1.208 0.7891,-0.105 1.4934,-0.843 1.3875,-1.632 -0.6703,-8.585 1.4194,-13.364 6.3636,-14.831 0.7679,-0.264 1.3144,-0.9798 1.2085,-1.7689 -0.2849,-0.9257 -1.0009,-1.4722 -1.79,-1.3663 z"
         fill="#ff782c"
         id="path133" />
      <path
         d="m 18.7634,102.528 c 0.7891,-0.106 1.4934,-0.843 1.3875,-1.632 -0.5316,-6.355 2.1089,-7.0307 3.0346,-7.3156 0.7679,-0.2638 1.3144,-0.9797 1.2085,-1.7688 -0.1059,-0.7891 -0.8219,-1.3356 -1.79,-1.3664 -0.789,0.106 -3.3353,0.2871 -4.6984,-6.2776 -0.1059,-0.7891 -0.9797,-1.3145 -1.7687,-1.2086 -0.7891,0.106 -1.4935,0.8431 -1.3876,1.6322 0.5529,6.5128 -2.0876,7.1885 -3.0345,7.3156 -0.7891,0.1059 -1.3144,0.9797 -1.2085,1.7688 0.1059,0.7891 0.8219,1.3356 1.6321,1.3875 0.9681,0.0307 3.5355,0.0075 4.8562,6.2569 0.1059,0.789 0.8219,1.335 1.7688,1.208 z"
         fill="#ff782c"
         id="path135" />
      <path
         d="m 29.1568,111.737 c -0.789,0.105 -3.1774,0.265 -4.3403,-6.005 -0.106,-0.789 -0.9798,-1.314 -1.7688,-1.208 -0.7891,0.106 -1.4935,0.843 -1.3875,1.632 0.4892,6.039 -1.9934,6.694 -2.7825,6.8 -0.7679,0.263 -1.3144,0.979 -1.2085,1.768 0.1059,0.789 0.8219,1.336 1.6321,1.388 0.8103,0.052 3.3777,0.029 4.4982,5.983 0.1059,0.789 0.9797,1.315 1.7688,1.209 0.7891,-0.106 1.4934,-0.843 1.3875,-1.633 -0.4893,-6.039 1.9934,-6.693 2.7613,-6.957 0.7679,-0.264 1.3144,-0.98 1.2085,-1.769 -0.1059,-0.789 -0.9797,-1.314 -1.7688,-1.208 z"
         fill="#ff782c"
         id="path137" />
    </g>
  </g>
</svg>
