<?xml version="1.0" encoding="UTF-8" standalone="no"?>
<svg
   xmlns:dc="http://purl.org/dc/elements/1.1/"
   xmlns:cc="http://creativecommons.org/ns#"
   xmlns:rdf="http://www.w3.org/1999/02/22-rdf-syntax-ns#"
   xmlns:svg="http://www.w3.org/2000/svg"
   xmlns="http://www.w3.org/2000/svg"
   xmlns:sodipodi="http://sodipodi.sourceforge.net/DTD/sodipodi-0.dtd"
   xmlns:inkscape="http://www.inkscape.org/namespaces/inkscape"
   inkscape:version="1.0 (4035a4fb49, 2020-05-01)"
   sodipodi:docname="homeb2.svg"
   id="svg204"
   version="1.1"
   fill="none"
   viewBox="0 0 123 106"
   height="106"
   width="123">
  <metadata
     id="metadata208">
    <rdf:RDF>
      <cc:Work
         rdf:about="">
        <dc:format>image/svg+xml</dc:format>
        <dc:type
           rdf:resource="http://purl.org/dc/dcmitype/StillImage" />
      </cc:Work>
    </rdf:RDF>
  </metadata>
  <sodipodi:namedview
     inkscape:current-layer="svg204"
     inkscape:window-maximized="1"
     inkscape:window-y="-8"
     inkscape:window-x="-8"
     inkscape:cy="-13.560061"
     inkscape:cx="-87.490193"
     inkscape:zoom="2.0990566"
     showgrid="false"
     id="namedview206"
     inkscape:window-height="1057"
     inkscape:window-width="1846"
     inkscape:pageshadow="2"
     inkscape:pageopacity="0"
     guidetolerance="10"
     gridtolerance="10"
     objecttolerance="10"
     borderopacity="1"
     bordercolor="#666666"
     pagecolor="#ffffff" />
  <defs
     id="defs202">
    <clipPath
       id="clip0">
      <rect
         id="rect199"
         fill="white"
         height="106"
         width="123" />
    </clipPath>
    <clipPath
       id="clip0-6">
      <rect
         y="0"
         x="0"
         width="128"
         height="110"
         fill="#ffffff"
         id="rect60" />
    </clipPath>
  </defs>
  <g
     transform="matrix(0.96363636,0,0,0.96363636,-0.17272704,2e-7)"
     clip-path="url(#clip0-6)"
     id="g58">
    <path
       d="m 12.4524,14.2773 72.4498,0.7301 c 2.1832,0 4.1238,1.4601 4.8515,3.5693 l 4.3664,18.9012 -73.3392,3.3259 z"
       fill="#8e8e8e"
       id="path2" />
    <path
       d="m 108.19,35.1254 c 2.749,0 9.622,4.705 8.651,11.9247 -1.536,11.5192 -4.528,24.9853 -4.528,24.9853 l -48.4342,0.9735 -2.4258,3.0825 c -0.4043,0.4868 -0.8895,0.8113 -1.4555,0.9735 l -11.0777,3.7316 c -1.132,0.4056 -1.9406,1.379 -2.1023,2.5958 l -1.132,9.9779 c -0.1618,1.5413 -0.1618,3.1637 -1.6981,3.1637 H 25.3898 c -0.1617,0 -18.43587,0 -18.43587,0 -1.53632,-0.2433 -7.0347405,-5.1917 -7.0347405,-6.733 L 0.161767,48.1858 c 0,0 -0.404296,-13.1415 8.247633,-13.1415 0.32343,0.0811 99.7806,0.0811 99.7806,0.0811 z"
       fill="#ff782c"
       id="path4" />
    <path
       d="M 41.3999,96.5339 H 85.8724 L 84.0935,72.0354 48.9198,72.441 Z"
       fill="#5b5b5b"
       id="path6" />
    <path
       d="M 41.3999,96.5339 45.5237,83.4735 56.844,83.3112 c 1.7789,0 2.9109,0.8112 2.9109,2.677 H 84.3361 V 96.4528 H 41.3999 Z"
       fill="#8e8e8e"
       id="path8" />
    <path
       d="M 125.413,96.5339 H 41.3999 l 0.8895,-2.9203 h 83.1236 c 0.808,0 1.374,0.6489 1.374,1.4602 0,0.8112 -0.647,1.4601 -1.374,1.4601 z"
       fill="#5b5b5b"
       id="path10" />
    <path
       d="m 115.062,87.2861 c 0,0 5.822,1.4602 5.58,6.3275 h -4.771 z"
       fill="#8e8e8e"
       id="path12" />
    <path
       d="m 30.1604,14.4395 6.2262,0.1623 4.4472,20.5236 h -6.4687"
       fill="#848484"
       id="path14" />
    <path
       d="M 38.8124,40.885 30.4031,0.324484 71.1561,0 78.5143,37.2345 Z"
       fill="#f9f9f9"
       id="path16" />
    <path
       d="m 72.1264,69.6017 c 0,0 -4.8516,13.2228 -12.4523,16.4676 H 84.983 c 0,0 -0.6469,-16.4676 -12.8566,-16.4676 z"
       fill="#d8d8d8"
       id="path18" />
    <path
       d="m 72.1265,69.6018 c 0,0 4.6898,-0.5679 4.4472,12.9793 -1.2129,13.2227 -0.1617,20.8479 5.2559,26.0399 0.7277,0.973 2.1023,1.46 3.3152,1.46 1.698,0 3.5578,-0.973 2.5875,-5.597 l 35.0117,-2.839 c -4.124,-7.058 -8.733,-9.3294 -3.558,-19.9562 1.052,-2.1903 0.89,-4.7861 0.162,-7.1386 -0.728,-2.4337 -2.345,-4.8673 -5.903,-4.8673 -8.247,-0.0811 -41.3185,-0.0811 -41.3185,-0.0811 z"
       fill="#f9f9f9"
       id="path20" />
    <path
       d="m 94.8477,95.5605 c -1.1321,0.0811 -2.1024,-0.7301 -2.1832,-1.8658 0,-0.4056 -0.4043,-0.7301 -0.8086,-0.649 -0.4043,0 -0.7278,0.4056 -0.6469,0.8112 0.1617,1.7847 1.698,3.2449 3.4769,3.2449 0.0809,0 0.1618,0 0.2426,0 0.4043,0 0.7278,-0.4056 0.6469,-0.8112 0.0809,-0.4057 -0.3234,-0.7301 -0.7277,-0.7301 z"
       fill="#ff9d6c"
       id="path22" />
    <path
       d="m 109.726,91.6666 c -0.405,0 -0.728,0.4056 -0.647,0.8112 0.081,0.5679 -0.162,1.0546 -0.485,1.4602 -0.324,0.4056 -0.809,0.649 -1.375,0.7301 -0.404,0 -0.728,0.4056 -0.647,0.8112 0,0.4056 0.324,0.649 0.728,0.649 0,0 0,0 0.081,0 0.889,-0.0811 1.779,-0.4867 2.345,-1.2168 0.566,-0.7301 0.889,-1.6225 0.808,-2.5148 -0.08,-0.4867 -0.404,-0.7301 -0.808,-0.7301 z"
       fill="#ff9d6c"
       id="path24" />
    <path
       d="m 105.844,78.2006 c 1.132,-0.0812 2.103,0.73 2.184,1.8657 0,0.4056 0.323,0.649 0.727,0.649 0,0 0,0 0.081,0 0.405,0 0.728,-0.4056 0.647,-0.8112 -0.162,-1.9469 -1.86,-3.326 -3.719,-3.1637 -0.405,0 -0.728,0.4056 -0.647,0.8112 0,0.4056 0.404,0.7301 0.727,0.649 z"
       fill="#ff9d6c"
       id="path26" />
    <path
       d="m 91.6942,81.3642 c -0.0809,-1.1356 0.7277,-2.1091 1.8598,-2.1902 0.4043,0 0.7277,-0.4056 0.6468,-0.8112 0,-0.4056 -0.4043,-0.7301 -0.8086,-0.649 -1.9406,0.1622 -3.3152,1.7847 -3.1535,3.7316 0,0.4056 0.3235,0.6489 0.7278,0.6489 0,0 0,0 0.0808,0 0.4043,0.0811 0.7278,-0.3245 0.6469,-0.7301 z"
       fill="#ff9d6c"
       id="path28" />
    <path
       d="m 108.108,91.4233 -0.08,-1.2168 c -0.081,-1.2169 -1.132,-2.1903 -2.426,-2.0281 l -1.213,0.0812 c -0.566,0.0811 -1.132,0.3244 -1.536,0.8112 -0.405,0.4867 -0.566,1.0545 -0.566,1.6224 l 0.08,1.2168 c 0.081,1.1357 1.052,2.028 2.184,2.028 0.081,0 0.081,0 0.161,0 l 1.213,-0.0811 c 1.375,-0.0811 2.264,-1.1357 2.183,-2.4336 z m -2.102,1.2168 -1.213,0.0811 c -0.566,0.0811 -1.051,-0.4056 -1.051,-0.8923 l -0.081,-1.2168 c 0,-0.2434 0.081,-0.5679 0.243,-0.7301 0.162,-0.2434 0.404,-0.3245 0.728,-0.3245 l 1.212,-0.0811 h 0.081 c 0.243,0 0.485,0.0811 0.647,0.2433 0.243,0.1623 0.324,0.4056 0.324,0.7301 l 0.08,1.2168 c 0,0.4868 -0.485,0.9735 -0.97,0.9735 z"
       fill="#ff9d6c"
       id="path30" />
    <path
       d="m 103.985,84.9336 c 0.081,0 0.081,0 0.162,0 l 1.212,-0.0812 c 1.213,-0.0811 2.103,-1.1357 2.022,-2.4336 L 107.3,81.202 c -0.081,-1.2168 -1.132,-2.1903 -2.426,-2.028 l -1.213,0.0811 c -1.213,0.0811 -2.102,1.1357 -2.021,2.4336 l 0.081,1.2168 c 0.081,1.1357 1.132,2.0281 2.264,2.0281 z m -0.162,-4.4617 1.213,-0.0811 h 0.081 c 0.242,0 0.485,0.0811 0.647,0.2434 0.242,0.1622 0.323,0.4056 0.323,0.73 l 0.081,1.2169 c 0,0.2433 -0.081,0.5678 -0.243,0.73 -0.161,0.2434 -0.404,0.3245 -0.727,0.3245 l -1.213,0.0811 c -0.566,0.0812 -1.051,-0.4056 -1.051,-0.9734 l -0.081,-1.2168 c 0,-0.5679 0.404,-1.0546 0.97,-1.0546 z"
       fill="#ff9d6c"
       id="path32" />
    <path
       d="m 92.6645,82.3377 0.0809,1.2168 c 0.0808,1.1357 1.0511,2.028 2.1832,2.028 0.0808,0 0.0808,0 0.1617,0 l 1.2129,-0.0811 c 0.566,-0.0811 1.132,-0.3245 1.5363,-0.8112 0.4043,-0.4867 0.566,-1.0546 0.566,-1.6224 L 98.3246,81.851 c -0.0808,-0.5679 -0.3234,-1.1357 -0.8085,-1.5413 -0.4852,-0.4056 -1.0512,-0.5679 -1.6172,-0.5679 l -1.2129,0.0811 c -0.566,0.0812 -1.132,0.3245 -1.5363,0.8112 -0.4043,0.4868 -0.5661,1.1357 -0.4852,1.7036 z M 94.12,81.5265 c 0.1617,-0.2434 0.4043,-0.3245 0.7277,-0.3245 l 1.2129,-0.0811 h 0.0808 c 0.2426,0 0.4852,0.0811 0.6469,0.2433 0.2426,0.1623 0.3235,0.4056 0.3235,0.7301 l 0.0808,1.2168 c 0,0.2434 -0.0808,0.5679 -0.2426,0.7301 -0.1617,0.2434 -0.4043,0.3245 -0.7277,0.3245 l -1.2129,0.0811 c -0.2426,0 -0.566,-0.0811 -0.7277,-0.2433 -0.2426,-0.1623 -0.3235,-0.4056 -0.3235,-0.7301 l -0.0808,-1.2168 c -0.0809,-0.2434 0,-0.4868 0.2426,-0.7301 z"
       fill="#ff9d6c"
       id="path34" />
    <path
       d="m 98.2437,89.4764 c -0.4852,-0.4056 -1.0512,-0.5679 -1.6172,-0.5679 l -1.2129,0.0811 c -0.566,0.0811 -1.132,0.3245 -1.5363,0.8112 -0.4043,0.4868 -0.566,1.0546 -0.566,1.6225 l 0.0808,1.2168 c 0.0809,1.1357 1.0512,2.028 2.1832,2.028 0.0809,0 0.0809,0 0.1618,0 l 1.2128,-0.0811 c 0.5661,-0.0812 1.1321,-0.3245 1.5364,-0.8112 0.4043,-0.4868 0.566,-1.0546 0.566,-1.6225 l -0.0809,-1.2168 c 0,-0.5678 -0.3234,-1.0545 -0.7277,-1.4601 z m -0.6469,3.5693 c -0.1617,0.2433 -0.4043,0.3245 -0.7277,0.3245 l -1.2129,0.0811 C 95.0902,93.5324 94.605,93.0457 94.605,92.4778 L 94.5242,91.261 c 0,-0.2433 0.0808,-0.5678 0.2425,-0.7301 0.1618,-0.2433 0.4043,-0.3245 0.7278,-0.3245 l 1.2129,-0.0811 h 0.0808 c 0.2426,0 0.4852,0.0811 0.6469,0.2434 0.2426,0.1622 0.3234,0.4056 0.3234,0.7301 l 0.0809,1.2168 c 0.0808,0.2433 0,0.4867 -0.2426,0.7301 z"
       fill="#ff9d6c"
       id="path36" />
    <path
       d="m 100.67,91.0988 c 0.404,0 0.727,-0.4056 0.646,-0.8112 l -0.08,-0.9735 c 0,-0.4056 -0.405,-0.7301 -0.809,-0.6489 -0.404,0 -0.7278,0.4056 -0.6469,0.8112 l 0.0808,0.9734 c 0.0809,0.4056 0.4851,0.649 0.8091,0.649 z"
       fill="#ff9d6c"
       id="path38" />
    <path
       d="m 100.023,82.3377 c 0.404,0 0.727,-0.4056 0.647,-0.8112 0,-0.4056 -0.405,-0.7301 -0.809,-0.6489 -0.4043,0 -0.7277,0.4056 -0.6469,0.8112 0,0.4056 0.4043,0.7301 0.8089,0.6489 z"
       fill="#ff9d6c"
       id="path40" />
    <path
       d="m 100.75,91.9911 c -0.404,0 -0.727,0.4056 -0.646,0.8112 0,0.4056 0.404,0.7301 0.808,0.649 0.404,0 0.728,-0.4056 0.647,-0.8112 -0.081,-0.4057 -0.404,-0.649 -0.809,-0.649 z"
       fill="#ff9d6c"
       id="path42" />
    <path
       d="m 105.278,85.8259 c -0.404,0 -0.727,0.4056 -0.646,0.8112 0,0.4056 0.404,0.7301 0.808,0.649 l 0.647,-0.0811 c 0.404,0 0.728,-0.4056 0.647,-0.8112 0,-0.4056 -0.404,-0.7301 -0.809,-0.649 z"
       fill="#ff9d6c"
       id="path44" />
    <path
       d="m 99.8609,87.4484 c 0.1621,0.1622 0.3231,0.1622 0.5661,0.1622 l 2.587,-0.1622 c 0.405,0 0.728,-0.4056 0.647,-0.8113 -0.081,-0.4056 -0.404,-0.73 -0.808,-0.6489 l -1.86,0.1622 -0.162,-1.6224 c 0,-0.4056 -0.404,-0.7301 -0.808,-0.649 -0.4047,0 -0.7281,0.4056 -0.6472,0.8112 l 0.1617,2.3526 c 0.0808,0.1622 0.2426,0.3244 0.3234,0.4056 z"
       fill="#ff9d6c"
       id="path46" />
    <path
       d="m 97.1118,86.4749 -2.5875,0.1623 c -0.4043,0 -0.7277,0.4056 -0.6468,0.8112 0,0.4056 0.4043,0.7301 0.8086,0.6489 l 2.5874,-0.1622 c 0.4043,0 0.7278,-0.4056 0.6469,-0.8112 -0.0808,-0.4056 -0.4043,-0.7301 -0.8086,-0.649 z"
       fill="#ff9d6c"
       id="path48" />
    <path
       d="m 87.0045,100.59 c 0,0 1.7789,9.572 -2.1832,9.491 l 42.3697,-3.894 c 0,0 2.426,-4.461 -0.808,-8.6796 z"
       fill="#d8d8d8"
       id="path50" />
    <path
       d="M 17.5466,41.615 11.563,14.6017 c 0,0 8.9754,-6.16515 11.8054,3.4071 l 4.1238,22.795 z"
       fill="#5b5b5b"
       id="path52" />
    <path
       d="M 47.8687,48.3481 H 116.68 c 1.536,-6.003 -2.264,-11.1947 -7.924,-13.2227 H 39.6211"
       fill="#ff9d6c"
       id="path54" />
    <path
       d="m 30.969,96.5339 c 0,0 16.8996,-48.2669 17.0613,-48.7537 0.6469,-3.0826 1.6981,-12.736 -7.9242,-12.736 H 8.57107 c 0,0 -8.409352,-0.9734 -8.4902109,14.6018 C 0.0808591,55.4056 0,81.2832 0,91.91 c 0,2.5148 2.02148,4.6239 4.60897,4.6239 8.57103,0.0811 26.36003,0.1623 26.36003,0 z"
       fill="#c4754d"
       id="path56" />
  </g>
</svg>
