<?xml version="1.0" encoding="UTF-8" standalone="no"?>
<svg
   xmlns:dc="http://purl.org/dc/elements/1.1/"
   xmlns:cc="http://creativecommons.org/ns#"
   xmlns:rdf="http://www.w3.org/1999/02/22-rdf-syntax-ns#"
   xmlns:svg="http://www.w3.org/2000/svg"
   xmlns="http://www.w3.org/2000/svg"
   xmlns:sodipodi="http://sodipodi.sourceforge.net/DTD/sodipodi-0.dtd"
   xmlns:inkscape="http://www.inkscape.org/namespaces/inkscape"
   inkscape:version="1.0 (4035a4fb49, 2020-05-01)"
   sodipodi:docname="homeb1.svg"
   id="svg42"
   version="1.1"
   fill="none"
   viewBox="0 0 184 65"
   height="65"
   width="184">
  <metadata
     id="metadata48">
    <rdf:RDF>
      <cc:Work
         rdf:about="">
        <dc:format>image/svg+xml</dc:format>
        <dc:type
           rdf:resource="http://purl.org/dc/dcmitype/StillImage" />
      </cc:Work>
    </rdf:RDF>
  </metadata>
  <defs
     id="defs46" />
  <sodipodi:namedview
     inkscape:current-layer="svg42"
     inkscape:window-maximized="1"
     inkscape:window-y="-8"
     inkscape:window-x="-8"
     inkscape:cy="-28.445592"
     inkscape:cx="5.3392905"
     inkscape:zoom="1.4142136"
     showgrid="false"
     id="namedview44"
     inkscape:window-height="1057"
     inkscape:window-width="1846"
     inkscape:pageshadow="2"
     inkscape:pageopacity="0"
     guidetolerance="10"
     gridtolerance="10"
     objecttolerance="10"
     borderopacity="1"
     bordercolor="#666666"
     pagecolor="#ffffff" />
  <g
     transform="matrix(1.015625,0,0,1.015625,2.1171875,0)"
     id="g98">
    <path
       id="path2-4"
       fill="#f9f9f9"
       d="M 168.083,64 H 28.2368 c -4.9043,0 -8.9169,-4.0563 -8.9169,-9.0141 V 9.01408 C 19.3199,4.05634 23.3325,0 28.2368,0 H 168.083 C 172.987,0 177,4.05634 177,9.01408 V 54.9859 C 177,59.9437 172.987,64 168.083,64 Z" />
    <path
       id="path4-7"
       fill="#a3a3a3"
       d="m 28.8313,15.1737 10.1801,-0.3005 10.1801,-0.2253 c 3.4181,-0.0751 6.8363,-0.2254 10.1801,-0.1503 3.4181,0.0752 6.8363,0.2254 10.1801,0.6761 v 0.1502 C 66.1336,15.7746 62.7154,15.9249 59.3716,16 55.9535,16.0751 52.5353,15.9249 49.1915,15.8498 L 39.0114,15.6244 28.8313,15.3239 Z" />
    <path
       id="path6-5"
       fill="#ff782c"
       d="m 28.8313,49.7277 c 1.7834,-0.1502 3.5667,-0.2253 5.3501,-0.3005 l 5.3502,-0.2253 c 1.7833,-0.0751 3.5667,-0.2254 5.3501,-0.1502 1.7834,0.0751 3.5667,0.2253 5.3501,0.676 v 0.1502 c -1.7834,0.4508 -3.5667,0.601 -5.3501,0.6761 -1.7834,0.0751 -3.5668,-0.0751 -5.3501,-0.1502 L 34.1814,50.1784 C 32.398,50.1033 30.6147,50.0282 28.8313,49.8779 Z" />
    <path
       id="path8-0"
       fill="#a3a3a3"
       d="m 28.8313,24.7887 38.2683,-0.3004 9.5856,-0.0752 h 9.5856 c 6.3905,0.0752 12.7809,0.1503 19.0972,0.3756 v 0.0752 c -6.3906,0.2253 -12.781,0.3004 -19.0972,0.3755 h -9.5856 l -9.5856,-0.0751 z" />
    <path
       id="path10-6"
       fill="#a3a3a3"
       d="m 28.8313,34.3287 38.2683,-0.3005 9.5856,-0.0751 h 9.5856 c 6.3905,0.0751 12.7809,0.1502 19.0972,0.3756 v 0.0751 c -6.3906,0.2253 -12.781,0.3004 -19.0972,0.3756 h -9.5856 l -9.5856,-0.0752 z" />
    <path
       id="path12-6"
       stroke-miterlimit="10"
       stroke-width="0.25"
       stroke="#3f3f3f"
       fill="#ffffff"
       d="m 125.579,33.7277 c 0,0 -2.08,1.8779 -0.668,3.0798 0,0 -0.744,0.3005 -0.446,0.8263 0.297,0.5258 1.04,1.0516 1.04,1.0516 0,0 -1.709,0.7512 -1.412,2.0282 0.297,1.277 2.155,0.6009 2.155,0.6009 0,0 0.074,2.6292 6.985,1.9531 5.945,-0.5258 11.369,-2.7042 14.639,-0.6761 4.235,2.554 9.511,-0.2253 7.059,-1.8779 0,0 3.418,-0.2253 1.634,-1.3521 0,0 2.081,-1.3521 -1.04,-2.7793 0,0 1.635,-1.5024 0,-3.4554 0,0 0.892,-1.3522 -0.966,-1.5024 -1.857,-0.1502 -9.957,-3.4554 -9.957,-3.4554 l -8.62,0.3005 z" />
    <path
       id="path14-8"
       fill="#ff782c"
       d="m 122.31,24.9389 c 0.297,-0.3004 0.52,-0.6009 0.743,-0.8263 1.337,-1.1267 5.35,-5.0328 14.713,-3.6807 10.7,1.5775 19.171,9.8404 20.954,12.0188 0.298,0.3756 0.595,0.8263 0.744,1.3521 0.371,1.0516 0.222,3.4554 -2.75,2.0282 -4.235,-1.9531 -17.536,-8.6385 -23.853,-2.554 -8.471,8.1878 -16.124,-2.7043 -10.551,-8.3381 z" />
    <path
       id="path16-8"
       fill="#ff782c"
       d="m 161.076,36.012 c 0.035,-0.6213 -0.502,-1.157 -1.198,-1.1964 -0.697,-0.0395 -1.29,0.4322 -1.324,1.0535 -0.034,0.6213 0.502,1.157 1.199,1.1964 0.696,0.0395 1.289,-0.4322 1.323,-1.0535 z" />
    <path
       id="path18-2"
       fill="#ff782c"
       d="m 159.315,37.0328 c 0,0 -1.709,4.3568 0.892,5.2582 2.526,0.9014 -0.298,-5.4084 -0.298,-5.4084" />
    <path
       id="path20-7"
       fill="#ff782c"
       d="m 160.429,36.4319 c 0,0 2.898,3.831 5.128,2.4037 2.229,-1.4272 -4.905,-2.9295 -4.905,-2.9295" />
    <path
       id="path22-0"
       fill="#7f7f7f"
       d="m 128.849,37.7089 c -0.297,-0.2254 -0.595,-0.4507 -0.966,-0.5259 -0.297,-0.1502 -0.669,0 -0.817,0.3005 -0.149,0.3005 -0.149,0.6761 0.148,0.9014 0.297,0.2254 0.669,0.3005 1.04,0.3005 -0.371,0.0751 -0.743,0.0751 -1.114,-0.1502 -0.149,-0.0752 -0.297,-0.3005 -0.297,-0.5259 0,-0.2253 0,-0.3756 0.074,-0.6009 0.074,-0.1502 0.223,-0.3756 0.446,-0.4507 0.223,-0.0751 0.446,0 0.594,0.0751 0.372,0.1502 0.669,0.3756 0.892,0.6761 z" />
    <path
       id="path24-0"
       fill="#7f7f7f"
       d="m 129.22,39.2863 c -0.445,-0.0751 -0.891,0.1503 -1.04,0.5258 -0.223,0.3756 -0.297,0.8263 -0.148,1.2019 0.148,0.3756 0.594,0.601 0.966,0.6761 0.445,0.0751 0.817,-0.2254 1.04,-0.5258 -0.149,0.3755 -0.595,0.7511 -1.115,0.676 -0.446,0 -0.891,-0.3005 -1.114,-0.7512 -0.223,-0.4507 -0.075,-0.9765 0.148,-1.3521 0.149,-0.2253 0.297,-0.3756 0.52,-0.4507 0.298,-0.0751 0.521,-0.0751 0.743,0 z" />
    <path
       id="path26-2"
       fill="#7f7f7f"
       d="m 151.736,37.1831 c 0.446,0 0.817,-0.3005 0.966,-0.7512 0.148,-0.3756 0.148,-0.8263 -0.075,-1.2019 -0.223,-0.3004 -0.668,-0.5258 -1.04,-0.4507 -0.446,0 -0.743,0.3756 -0.966,0.7512 0.074,-0.4507 0.446,-0.8263 0.966,-0.9014 0.446,-0.0751 0.966,0.1502 1.263,0.5258 0.298,0.3756 0.223,0.9765 0.075,1.3521 -0.075,0.2254 -0.223,0.3756 -0.446,0.5258 -0.297,0.0752 -0.52,0.1503 -0.743,0.1503 z" />
    <path
       id="path28-7"
       fill="#ff9d6c"
       d="m 124.39,22.9859 c 1.189,-0.9766 2.675,-1.5775 4.236,-1.7277 0.817,-0.0751 1.635,0 2.452,0.3004 0.817,0.2254 1.56,0.6761 2.229,1.3522 1.263,1.2018 1.858,2.8544 2.081,4.4319 0.223,1.5774 0,3.0798 -0.446,4.5821 -0.446,-1.4272 -0.817,-2.8544 -1.263,-4.1314 -0.446,-1.277 -1.115,-2.4038 -1.932,-3.1549 -0.818,-0.8263 -1.932,-1.277 -3.195,-1.4273 -1.264,-0.3756 -2.675,-0.3756 -4.162,-0.2253 z" />
    <path
       id="path30-9"
       fill="#ff9d6c"
       d="m 138.657,20.507 c 0.966,0.3005 1.784,0.9014 2.453,1.6526 0.668,0.7512 1.189,1.7277 1.411,2.7793 0.223,1.0517 0.223,2.1033 0,3.0799 -0.074,0.5258 -0.297,0.9765 -0.52,1.4272 -0.223,0.4507 -0.52,0.9014 -0.817,1.277 0,-0.5258 0.074,-0.9765 0.074,-1.4272 v -0.6761 c 0,-0.2254 0,-0.4507 0,-0.6761 0,-0.9014 -0.148,-1.8028 -0.297,-2.6291 -0.223,-1.6526 -1.115,-3.23 -2.304,-4.8075 z" />
    <path
       id="path32-5"
       fill="#ff9d6c"
       d="m 148.392,24.1127 c 0.446,0.6009 0.743,1.277 1.04,1.953 0.223,0.6761 0.372,1.4273 0.372,2.1784 0,0.7512 -0.149,1.5024 -0.446,2.2535 -0.372,0.6761 -0.892,1.277 -1.486,1.6526 0.445,-0.6009 0.743,-1.2018 0.966,-1.8028 0.148,-0.676 0.223,-1.3521 0.223,-2.0282 0,-0.676 -0.075,-1.3521 -0.223,-2.0281 -0.149,-0.7512 -0.298,-1.4273 -0.446,-2.1784 z" />
    <path
       id="path34-9"
       fill="#ff9d6c"
       d="m 154.931,28.6948 c 0.371,0.4507 0.668,0.9014 0.817,1.5024 0.149,0.5258 0.223,1.2018 0.149,1.8028 -0.075,0.6009 -0.446,1.2019 -0.818,1.5775 -0.446,0.4507 -0.966,0.676 -1.56,0.7511 0.446,-0.3756 0.817,-0.7511 1.114,-1.1267 0.298,-0.3756 0.521,-0.8263 0.521,-1.3521 0.222,-0.9766 0.074,-2.0282 -0.223,-3.155 z" />
    <path
       id="path36-3"
       fill="#ff782c"
       d="m 19.3199,50.3286 c 10.6701,0 19.3199,-8.7441 19.3199,-19.5305 C 38.6398,20.0117 29.99,11.2676 19.3199,11.2676 8.64981,11.2676 0,20.0117 0,30.7981 0,41.5845 8.64981,50.3286 19.3199,50.3286 Z" />
    <path
       id="path38-8"
       fill="#ffffff"
       d="m 19.3199,41.4648 c -0.3715,0 -0.6688,-0.3005 -0.6688,-0.6761 V 20.8826 c 0,-0.3756 0.2973,-0.6761 0.6688,-0.6761 0.3715,0 0.6688,0.3005 0.6688,0.6761 v 19.831 c 0,0.3756 -0.2973,0.7512 -0.6688,0.7512 z" />
    <path
       id="path40-8"
       fill="#ffffff"
       d="m 8.76819,30.7981 c 0,-0.3756 0.29723,-0.676 0.66876,-0.676 H 29.0541 c 0.3715,0 0.6688,0.3004 0.6688,0.676 0,0.3756 -0.2973,0.6761 -0.6688,0.6761 H 9.43695 c -0.37153,0 -0.66876,-0.3005 -0.66876,-0.6761 z" />
  </g>
</svg>
