<?xml version="1.0" encoding="UTF-8" standalone="no"?>
<svg
   xmlns:dc="http://purl.org/dc/elements/1.1/"
   xmlns:cc="http://creativecommons.org/ns#"
   xmlns:rdf="http://www.w3.org/1999/02/22-rdf-syntax-ns#"
   xmlns:svg="http://www.w3.org/2000/svg"
   xmlns="http://www.w3.org/2000/svg"
   xmlns:sodipodi="http://sodipodi.sourceforge.net/DTD/sodipodi-0.dtd"
   xmlns:inkscape="http://www.inkscape.org/namespaces/inkscape"
   inkscape:version="1.0 (4035a4fb49, 2020-05-01)"
   sodipodi:docname="homeb3.svg"
   id="svg63"
   version="1.1"
   fill="none"
   viewBox="0 0 55 110"
   height="110"
   width="55">
  <metadata
     id="metadata67">
    <rdf:RDF>
      <cc:Work
         rdf:about="">
        <dc:format>image/svg+xml</dc:format>
        <dc:type
           rdf:resource="http://purl.org/dc/dcmitype/StillImage" />
      </cc:Work>
    </rdf:RDF>
  </metadata>
  <sodipodi:namedview
     inkscape:current-layer="svg63"
     inkscape:window-maximized="1"
     inkscape:window-y="-8"
     inkscape:window-x="-8"
     inkscape:cy="48.984074"
     inkscape:cx="-0.62249326"
     inkscape:zoom="5.7211367"
     showgrid="false"
     id="namedview65"
     inkscape:window-height="1057"
     inkscape:window-width="1846"
     inkscape:pageshadow="2"
     inkscape:pageopacity="0"
     guidetolerance="10"
     gridtolerance="10"
     objecttolerance="10"
     borderopacity="1"
     bordercolor="#666666"
     pagecolor="#ffffff" />
  <defs
     id="defs61">
    <clipPath
       id="clip0">
      <rect
         id="rect58"
         fill="white"
         height="110"
         width="55" />
    </clipPath>
  </defs>
  <g
     transform="matrix(0.99117166,0,0,0.99117166,-0.23007505,2.2424398e-7)"
     id="g155"
     style="fill:none">
    <path
       d="m 20.3151,17.0307 c 0,0 -7.7518,0 -17.30789,21.9061 C 2.00483,41.2076 1.53705,47.8195 1.938,50.1571 2.80673,55.5668 3.67547,60.9098 1.00244,65.7852 -0.267251,68.056 -0.200425,72.2636 0.601484,74.2004 2.47261,78.4748 5.41294,79.4766 9.89027,81.6805 L 2.00483,103.921 c 0,0 10.75897,13.223 24.59187,3.473 l 0.5346,-17.6323 -1.7375,-49.8231 -12.4295,1.269 c 0,0 -1.2697,-4.2744 8.019,-15.5614 z"
       fill="#f5bb95"
       id="path69" />
    <path
       d="m 14.0334,41.074 c 0,0 3.1409,-10.9531 8.4201,-13.2906 5.2792,-2.3376 0.6682,12.6895 0.6682,12.6895 z"
       fill="#f5bb95"
       id="path71" />
    <path
       d="m 17.1743,63.7148 c 0.6014,-0.0668 1.2029,0 1.8043,0.1336 0.6014,0.1335 1.136,0.4675 1.6038,0.8014 0.2673,0.2004 0.4678,0.4007 0.6683,0.6011 0.2005,0.2671 0.4009,0.4675 0.5346,0.7347 0.3341,0.5343 0.4678,1.1353 0.4678,1.7364 -0.3342,-0.5343 -0.5346,-1.0018 -0.9356,-1.4693 -0.3341,-0.4675 -0.7351,-0.8014 -1.136,-1.1354 -0.8688,-0.5343 -1.8711,-1.0018 -3.0072,-1.4025 z"
       fill="#cca189"
       id="path73" />
    <path
       d="m 21.5848,40.4061 c -1.6707,0.334 -3.4082,0.5343 -5.0788,0.8015 l -2.5394,0.2671 c -0.8687,0.1336 -1.6706,0.2004 -2.5394,0.334 0.802,-0.4008 1.6039,-0.6679 2.4726,-0.8683 0.8687,-0.2003 1.6706,-0.3339 2.5394,-0.4675 1.6706,-0.1336 3.4081,-0.2671 5.1456,-0.0668 z"
       fill="#cca189"
       id="path75" />
    <path
       d="m 21.5846,44.4802 c -1.7375,1.4025 -3.6086,2.7382 -5.4797,3.9404 -0.9356,0.6011 -1.938,1.2022 -2.8735,1.7365 -0.4678,0.2671 -1.0024,0.5343 -1.537,0.8014 l -0.8019,0.4007 c -0.2673,0.1336 -0.4678,0.2004 -0.6683,0.4007 -1.80429,1.1354 -2.80668,3.2726 -2.94033,5.4766 -0.06682,1.0686 -0.06682,2.204 0.06683,3.3393 0.06682,1.1354 0.2673,2.204 0.53461,3.3394 -0.80191,-2.1372 -1.13604,-4.408 -1.13604,-6.6787 0,-1.1354 0.2673,-2.3376 0.80191,-3.4062 0.5346,-1.0685 1.33651,-2.0036 2.3389,-2.6046 0.26732,-0.1336 0.53462,-0.334 0.80192,-0.4008 l 0.7351,-0.3339 c 0.4678,-0.2672 1.0024,-0.4675 1.4701,-0.7347 1.0024,-0.5343 1.938,-1.0686 2.9404,-1.6029 1.0024,-0.5342 1.9379,-1.1353 2.8735,-1.7364 0.9355,-0.7347 1.8711,-1.3358 2.8735,-1.9368 z"
       fill="#cca189"
       id="path77" />
    <path
       d="M 47.9809,78.3412 H 25.1265 c -4.4105,0 -8.0191,-3.6065 -8.0191,-8.0145 V 8.01444 C 17.1074,3.6065 20.716,0 25.1265,0 h 22.7876 c 4.4105,0 8.0191,3.6065 8.0191,8.01444 V 70.3267 c 0.0668,4.408 -3.5418,8.0145 -7.9523,8.0145 z"
       fill="#3f3f3f"
       id="path79" />
    <path
       d="M 45.642,73.5993 H 27.4654 c -4.4105,0 -8.0191,-3.6065 -8.0191,-8.0144 V 12.6896 c 0,-4.40799 3.6086,-8.01449 8.0191,-8.01449 H 45.642 c 4.4105,0 8.0191,3.6065 8.0191,8.01449 v 52.8953 c 0,4.4079 -3.6086,8.0144 -8.0191,8.0144 z"
       fill="#f5f5f5"
       id="path81" />
    <path
       d="m 36.5538,70.2599 c 1.6608,0 3.0072,-1.3456 3.0072,-3.0054 0,-1.6598 -1.3464,-3.0054 -3.0072,-3.0054 -1.6608,0 -3.0072,1.3456 -3.0072,3.0054 0,1.6598 1.3464,3.0054 3.0072,3.0054 z"
       fill="#ff782c"
       id="path83" />
    <path
       d="m 36.5537,71.3286 c -2.2721,0 -4.0764,-1.8033 -4.0764,-4.0741 0,-2.2707 1.8043,-4.074 4.0764,-4.074 2.272,0 4.0763,1.8033 4.0763,4.074 0,2.2708 -1.8043,4.0741 -4.0763,4.0741 z m 0,-7.6805 c -2.0048,0 -3.6086,1.6028 -3.6086,3.6064 0,2.0037 1.6038,3.6065 3.6086,3.6065 2.0047,0 3.6086,-1.6028 3.6086,-3.6065 0,-2.0036 -1.6039,-3.6064 -3.6086,-3.6064 z"
       fill="#ff782c"
       id="path85" />
    <path
       d="m 29.5371,35.6643 c -0.6683,0 -1.2697,-0.2672 -1.6707,-0.7347 -0.4678,-0.4675 -0.7351,-1.0686 -0.7351,-1.6696 0,-0.334 -0.2673,-0.6011 -0.6014,-0.6011 -0.3341,0 -0.6014,0.2671 -0.6014,0.6011 0,1.0018 0.4009,1.87 1.0692,2.6046 0.6682,0.6679 1.6038,1.0686 2.6062,1.0686 0.3341,0 0.6014,-0.2671 0.6014,-0.601 -0.0668,-0.4008 -0.3341,-0.6679 -0.6682,-0.6679 z"
       fill="#ff782c"
       id="path87" />
    <path
       d="m 45.9094,32.6589 c -0.3342,0 -0.6015,0.2671 -0.6015,0.6011 0,1.3357 -1.0692,2.4043 -2.4057,2.4043 -0.3341,0 -0.6014,0.2671 -0.6014,0.6011 0,0.3339 0.2673,0.6011 0.6014,0.6011 2.0048,0 3.6754,-1.6029 3.6754,-3.6733 0,-0.2672 -0.2673,-0.5343 -0.6682,-0.5343 z"
       fill="#ff782c"
       id="path89" />
    <path
       d="m 42.9021,17.1643 c 1.3366,0 2.4058,1.0686 2.4058,2.4043 0,0.3339 0.2673,0.6011 0.6014,0.6011 0.3341,0 0.6014,-0.2672 0.6014,-0.6011 0,-2.0036 -1.6038,-3.6733 -3.6754,-3.6733 -0.3341,0 -0.6014,0.2672 -0.6014,0.6011 0.0668,0.4007 0.3341,0.6679 0.6682,0.6679 z"
       fill="#ff782c"
       id="path91" />
    <path
       d="m 26.5298,19.8358 c 0.3342,0 0.6015,-0.2672 0.6015,-0.6011 0,-1.3358 1.0692,-2.4044 2.4057,-2.4044 0.3341,0 0.6014,-0.2671 0.6014,-0.601 0,-0.334 -0.2673,-0.6011 -0.6014,-0.6011 -2.0048,0 -3.6754,1.6029 -3.6754,3.6733 0,0.2671 0.2673,0.5343 0.6682,0.5343 z"
       fill="#ff782c"
       id="path93" />
    <path
       d="m 42.6349,34.1282 c 0.401,0 0.7351,-0.1336 1.0692,-0.4008 0.2673,-0.2671 0.4678,-0.6678 0.4678,-1.0685 v -3.139 c 0,-0.4008 -0.1337,-0.7347 -0.401,-1.0686 -0.2673,-0.2672 -0.6682,-0.4675 -1.0692,-0.4675 h -3.1408 c -0.4009,0 -0.7351,0.1335 -1.0692,0.4007 -0.2673,0.2671 -0.4678,0.6679 -0.4678,1.0686 v 3.139 c 0,0.4007 0.1337,0.7346 0.401,1.0686 0.2673,0.2671 0.6682,0.4675 1.0692,0.4675 z m -3.3413,-1.269 c -0.0668,-0.0668 -0.0668,-0.1336 -0.0668,-0.2003 v -3.139 c 0,-0.1336 0.0668,-0.2004 0.0668,-0.2004 0.0668,-0.0668 0.1337,-0.0668 0.2005,-0.0668 h 3.1408 c 0.1337,0 0.2005,0.0668 0.2005,0.0668 0.0668,0.0668 0.0668,0.1336 0.0668,0.2004 v 3.139 c 0,0.1335 -0.0668,0.2003 -0.0668,0.2003 -0.0668,0.0668 -0.1337,0.0668 -0.2005,0.0668 h -3.1408 c -0.1337,0 -0.2005,0 -0.2005,-0.0668 z"
       fill="#ff782c"
       id="path95" />
    <path
       d="m 39.494,24.778 h 3.1408 c 0.8019,0 1.4702,-0.6679 1.4702,-1.4693 v -3.139 c 0,-0.8015 -0.6683,-1.4693 -1.4702,-1.4693 H 39.494 c -0.4009,0 -0.7351,0.1336 -1.0692,0.4007 -0.2673,0.2671 -0.4678,0.6679 -0.4678,1.0686 v 3.139 c 0.0669,0.8014 0.7351,1.4693 1.537,1.4693 z m -0.3341,-4.6083 c 0,-0.2004 0.1336,-0.3339 0.3341,-0.3339 h 3.1408 c 0.2005,0 0.3342,0.1335 0.3342,0.3339 v 3.139 c 0,0.2003 -0.1337,0.3339 -0.3342,0.3339 H 39.494 c -0.2005,0 -0.3341,-0.1336 -0.3341,-0.3339 z"
       fill="#ff782c"
       id="path97" />
    <path
       d="m 33.2792,18.5668 h -3.1408 c -0.8019,0 -1.4702,0.6678 -1.4702,1.4693 v 3.139 c 0,0.4007 0.1337,0.7346 0.401,1.0686 0.2673,0.2671 0.6682,0.4675 1.0692,0.4675 h 3.1408 c 0.8019,0 1.4702,-0.6679 1.4702,-1.4693 v -3.139 c 0,-0.4007 -0.1337,-0.7347 -0.401,-1.0686 -0.2673,-0.334 -0.6683,-0.4675 -1.0692,-0.4675 z m 0.3341,4.6083 c 0,0.2003 -0.1336,0.3339 -0.3341,0.3339 h -3.1408 c -0.1337,0 -0.2005,-0.0668 -0.2005,-0.0668 -0.0668,-0.0668 -0.0668,-0.1335 -0.0668,-0.2003 v -3.139 c 0,-0.2004 0.1336,-0.334 0.3341,-0.334 h 3.1408 c 0.1337,0 0.2005,0.0668 0.2005,0.0668 0.0668,0.0668 0.0668,0.1336 0.0668,0.2004 z"
       fill="#ff782c"
       id="path99" />
    <path
       d="m 33.2792,28.0505 h -3.1408 c -0.8019,0 -1.4702,0.6679 -1.4702,1.4694 v 3.1389 c 0,0.4008 0.1337,0.7347 0.401,1.0686 0.2673,0.2672 0.6682,0.4675 1.0692,0.4675 h 3.1408 c 0.8019,0 1.4702,-0.6678 1.4702,-1.4693 v -3.139 c 0,-0.8682 -0.6683,-1.5361 -1.4702,-1.5361 z m 0.3341,4.6083 c 0,0.2004 -0.1336,0.334 -0.3341,0.334 h -3.1408 c -0.2005,0 -0.3342,-0.1336 -0.3342,-0.334 v -3.1389 c 0,-0.1336 0.0669,-0.2004 0.0669,-0.2004 0.0668,-0.0668 0.1336,-0.0668 0.2005,-0.0668 h 3.1408 c 0.2004,0 0.3341,0.1336 0.3341,0.3339 z"
       fill="#ff782c"
       id="path101" />
    <path
       d="m 29.7374,26.8484 h 3.2745 c 0.3341,0 0.6014,-0.2671 0.6014,-0.6011 0,-0.3339 -0.2673,-0.6011 -0.6014,-0.6011 h -3.2745 c -0.3341,0 -0.6014,0.2672 -0.6014,0.6011 0,0.334 0.2673,0.6011 0.6014,0.6011 z"
       fill="#ff782c"
       id="path103" />
    <path
       d="m 40.8304,25.6462 c -0.3341,0 -0.6014,0.2672 -0.6014,0.6011 0,0.334 0.2673,0.6011 0.6014,0.6011 h 2.0048 c 0.3341,0 0.6014,-0.2671 0.6014,-0.6011 0,-0.3339 -0.2673,-0.6011 -0.6014,-0.6011 z"
       fill="#ff782c"
       id="path105" />
    <path
       d="m 36.3531,26.8484 h 2.0048 c 0.3341,0 0.6014,-0.2672 0.6014,-0.6011 0,-0.3339 -0.2673,-0.6011 -0.6014,-0.6011 h -1.4033 v -3.8068 c 0,-0.334 -0.2673,-0.6011 -0.6015,-0.6011 -0.3341,0 -0.6014,0.2671 -0.6014,0.6011 v 4.3411 0.0668 c 0,0.3339 0.2673,0.6011 0.6014,0.6011 z"
       fill="#ff782c"
       id="path107" />
    <path
       d="m 36.42,28.1841 c -0.3341,0 -0.6014,0.2672 -0.6014,0.6011 v 2.6047 c 0,0.334 0.2673,0.6011 0.6014,0.6011 0.3342,0 0.6015,-0.2671 0.6015,-0.6011 v -2.6047 c 0,-0.3339 -0.2673,-0.6011 -0.6015,-0.6011 z"
       fill="#ff782c"
       id="path109" />
    <path
       d="m 36.42,32.5253 c -0.3341,0 -0.6014,0.2671 -0.6014,0.601 0,0.334 0.2673,0.6011 0.6014,0.6011 0.3342,0 0.6015,-0.2671 0.6015,-0.6011 0,-0.2671 -0.2673,-0.601 -0.6015,-0.601 z"
       fill="#ff782c"
       id="path111" />
    <path
       d="m 36.4869,20.1029 c 0.3342,0 0.6015,-0.2671 0.6015,-0.6011 0,-0.3339 -0.2673,-0.601 -0.6015,-0.601 -0.3341,0 -0.6014,0.2671 -0.6014,0.601 0,0.334 0.2005,0.6011 0.6014,0.6011 z"
       fill="#ff782c"
       id="path113" />
    <path
       d="M 49.6515,22.6408 H 23.1217 c -0.2005,0 -0.401,-0.2004 -0.401,-0.4007 0,-0.2004 0.2005,-0.4007 0.401,-0.4007 h 26.5298 c 0.2005,0 0.4009,0.2003 0.4009,0.4007 0,0.2671 -0.1336,0.4007 -0.4009,0.4007 z"
       fill="#6bd60d"
       id="path115" />
    <path
       d="m 7.81849,63.8484 c 0,0 -3.34129,-9.8845 2.80671,-12.7564 6.1479,-2.8718 11.8281,-6.6787 14.9021,-10.8195 0,0 3.5418,-4.2075 4.3437,5.4766 0.2005,2.7382 -0.8019,5.4765 -2.8067,7.2798 -2.0048,1.87 -5.346,3.6065 -10.6253,3.6065 0,0 2.0048,11.5541 -0.8687,14.426"
       fill="#f5bb95"
       id="path117" />
    <path
       d="m 21.3843,56.1679 c -0.6682,0.2004 -1.3365,0.4007 -2.0048,0.5343 -0.6682,0.1336 -1.4033,0.2672 -2.1384,0.2672 l 0.2673,-0.2004 c 0.0668,2.5379 -0.1336,5.0758 -0.4678,7.5469 -0.2004,1.269 -0.4677,2.4711 -0.8687,3.7401 -0.401,1.2022 -0.9356,2.4043 -1.8711,3.3393 0.7351,-1.0018 1.136,-2.2039 1.4033,-3.4061 0.2673,-1.2022 0.4678,-2.4711 0.6683,-3.6733 0.3341,-2.4711 0.5346,-5.009 0.6682,-7.4801 v -0.2672 h 0.2005 c 0.6683,0.0668 1.3365,0 2.0716,-0.0668 0.6683,-0.1335 1.3365,-0.2671 2.0716,-0.3339 z"
       fill="#cca189"
       id="path119" />
  </g>
</svg>
