<?xml version="1.0" encoding="UTF-8" standalone="no"?>
<svg
   xmlns:dc="http://purl.org/dc/elements/1.1/"
   xmlns:cc="http://creativecommons.org/ns#"
   xmlns:rdf="http://www.w3.org/1999/02/22-rdf-syntax-ns#"
   xmlns:svg="http://www.w3.org/2000/svg"
   xmlns="http://www.w3.org/2000/svg"
   xmlns:sodipodi="http://sodipodi.sourceforge.net/DTD/sodipodi-0.dtd"
   xmlns:inkscape="http://www.inkscape.org/namespaces/inkscape"
   width="160"
   height="76"
   viewBox="0 0 160 76"
   fill="none"
   version="1.1"
   id="svg16"
   sodipodi:docname="logo.svg"
   inkscape:version="1.0 (4035a4fb49, 2020-05-01)">
  <metadata
     id="metadata22">
    <rdf:RDF>
      <cc:Work
         rdf:about="">
        <dc:format>image/svg+xml</dc:format>
        <dc:type
           rdf:resource="http://purl.org/dc/dcmitype/StillImage" />
      </cc:Work>
    </rdf:RDF>
  </metadata>
  <defs
     id="defs20" />
  <sodipodi:namedview
     inkscape:document-rotation="0"
     pagecolor="#ffffff"
     bordercolor="#666666"
     borderopacity="1"
     objecttolerance="10"
     gridtolerance="10"
     guidetolerance="10"
     inkscape:pageopacity="0"
     inkscape:pageshadow="2"
     inkscape:window-width="1846"
     inkscape:window-height="1057"
     id="namedview18"
     showgrid="false"
     inkscape:zoom="2.329033"
     inkscape:cx="-24.722298"
     inkscape:cy="33.758901"
     inkscape:window-x="-8"
     inkscape:window-y="-8"
     inkscape:window-maximized="1"
     inkscape:current-layer="svg16" />
  <style
     id="style76"
     type="text/css">
	.st0{fill:#FD9A24;}
	.st1{fill:#DB770B;}
	.st2{fill:#FFC880;}
</style>
  <path
     style="stroke-width:0.164464"
     d="m 45.693472,20.421365 c 0,-2.032743 1.543823,-3.641579 3.52249,-3.641579 2.033104,0 3.64222,1.608836 3.64222,3.641579 0,1.978502 -1.609116,3.576434 -3.64222,3.576434 -1.978667,0 -3.52249,-1.597932 -3.52249,-3.576434 z m 0.674138,14.805709 c 0,-0.619701 0.554408,-1.174109 1.174108,-1.174109 h 3.522491 c 0.6197,0 1.174273,0.554408 1.174273,1.174109 v 22.338819 c 0,0.619536 -0.554573,1.173944 -1.174273,1.173944 h -3.522491 c -0.6197,0 -1.174108,-0.554408 -1.174108,-1.173944 z"
     fill="#ff782c"
     id="path2" />
  <path
     style="stroke-width:0.164464"
     d="m 57.293941,35.227074 c 0,-0.619701 0.554408,-1.174109 1.174109,-1.174109 h 3.511636 c 0.6197,0 1.174108,0.554408 1.174108,1.174109 v 12.653204 c 0,4.011113 1.913539,6.174472 5.05546,6.174472 3.64222,0 5.925309,-2.956898 6.110167,-4.076405 V 35.227074 c 0,-0.989251 0.489116,-1.174109 1.358966,-1.174109 H 78.8856 c 0.6197,0 1.174109,0.554408 1.174109,1.174109 v 22.338819 c 0,0.619536 -0.554409,1.173944 -1.174109,1.173944 h -1.728681 c -0.619701,0 -0.924124,-0.434843 -1.108981,-0.989251 l -0.619701,-1.79348 c -0.554408,0.489116 -3.14192,3.391577 -8.143107,3.391577 -7.403676,0 -10.002208,-5.23966 -10.002208,-11.664118 V 35.227074 Z"
     fill="#ff782c"
     id="path4" />
  <path
     style="stroke-width:0.164464"
     d="m 85.495738,35.227074 c 0,-0.619701 0.554408,-1.174109 1.174109,-1.174109 h 1.728681 c 0.554573,0 0.858831,0.304423 1.043689,0.739266 l 0.674138,2.097903 c 0.554408,-0.554408 3.39207,-3.456705 8.143107,-3.456705 3.576768,0 6.175298,1.42393 7.958248,3.945985 0.67397,-0.673973 4.26176,-3.945985 8.94767,-3.945985 7.5234,0 10.1869,5.304787 10.1869,11.71839 v 12.403219 c 0,0.619536 -0.48912,1.173944 -1.17411,1.173944 h -3.4572 c -0.67414,0 -1.17427,-0.554408 -1.17427,-1.173944 V 44.923543 c 0,-3.891712 -1.79381,-6.109345 -5.12059,-6.109345 -3.76179,0 -5.92531,2.652476 -6.36015,3.022027 0.11956,0.554408 0.18486,1.728517 0.18486,2.956734 v 12.772934 c 0,0.619536 -0.55458,1.173944 -1.17428,1.173944 h -3.27234 c -0.67414,0 -1.17427,-0.554408 -1.17427,-1.173944 v -12.64235 c 0,-3.945985 -1.79381,-6.109345 -5.240319,-6.109345 -3.707348,0 -5.80558,2.902461 -6.110002,3.706855 v 15.055694 c 0,0.619536 -0.554409,1.173944 -1.174109,1.173944 h -3.457363 c -0.6197,0 -1.174108,-0.554408 -1.174108,-1.173944 V 35.227074 Z"
     fill="#ff782c"
     id="path6" />
  <path
     style="stroke-width:0.164464"
     d="m 141.02981,33.444284 c 6.41443,0 11.35032,4.815506 11.35032,11.413967 0,0.434843 -0.0653,1.239237 -0.11973,1.663225 -0.0651,0.619536 -0.55441,1.043524 -1.10882,1.043524 h -16.78635 c 0.18486,3.337139 3.08765,6.598296 7.09942,6.598296 2.2178,0 4.26176,-0.989086 5.49031,-1.79348 0.73926,-0.434843 1.1741,-0.673973 1.66338,-0.06529 l 1.72869,2.348053 c 0.43484,0.489116 0.6197,0.989251 -0.11957,1.608787 -1.79397,1.543659 -5.00119,3.087154 -9.13252,3.087154 -7.46897,0 -12.40487,-5.859195 -12.40487,-12.957627 0,-6.967847 4.9359,-12.946607 12.33974,-12.946607 z m 5.62072,10.239859 c -0.18486,-2.956735 -2.6528,-5.489481 -5.67516,-5.489481 -3.33763,0 -5.92514,2.402326 -6.29486,5.489481 z"
     fill="#ff782c"
     id="path8" />
  <path
     style="stroke-width:0.164464"
     d="m 22.64499,15.225305 0.206567,-9.294273 c 0,-0.7609257 -1.239466,-1.1305257 -1.946152,-0.587005 L 7.7829525,15.225305 Z"
     fill="#db662c"
     id="path10" />
  <path
     style="stroke-width:0.164464"
     d="M 29.157272,22.247573 V 10.703202 c 0,-0.489182 -0.750285,-0.7609419 -1.217691,-0.434826 -5.142461,3.63074 -13.187696,5.011301 -20.1566285,4.956945 z"
     fill="#ffb594"
     id="path12" />
  <path
     style="stroke-width:0.164464"
     d="m 8.7940444,15.04053 21.7221936,6.750491 c 0.89156,0.271859 1.456823,0.88054 1.456823,1.554514 v 46.449573 c 0,0.837122 -1.28282,1.369657 -2.359237,1.000106 L 8.9136426,63.533798 C 8.1199886,63.261939 7.61987,62.696677 7.61987,62.087995 V 15.562308 c 0,-0.413068 0.6305715,-0.695699 1.1741744,-0.521778 z"
     fill="#ff782c"
     id="path14" />
</svg>
