<svg version="1" xmlns="http://www.w3.org/2000/svg" width="346.667" height="346.667" viewBox="0 0 260.000000 260.000000"><path d="M106.8 36.3L85 52.5V132c0 43.7.4 80 .8 80.7.9 1.5.4 1.3 39.2 15 17.9 6.3 34 11.6 35.7 11.8 1.9.2 3.7-.3 4.4-1.2 1.5-1.7 2-157.6.6-160.6-.5-1-2.3-2.5-4-3.2l-3.2-1.3-.1-18.6c0-17.2-.2-18.7-2-20.1-2.8-2.1-5.3-1.8-9.3 1-2 1.3-5.2 3.1-7.2 3.9l-3.6 1.5v-9.3c0-5.2-.4-9.9-.7-10.5-.4-.6-2.2-1.1-3.9-1-2.5 0-7.9 3.6-24.9 16.2zm44.8 19.8c0 13.1-.2 15-1.6 14.6-.8-.3-12.2-3.8-25.3-7.9l-23.8-7.3 6.3-.6c5.8-.6 10.5-1.3 16.8-2.4 4.7-.8 13.8-4.3 20.7-7.9 3.7-2 6.8-3.6 6.8-3.6.1 0 .1 6.8.1 15.1z"/></svg>