<svg width="32" height="32" viewBox="0 0 32 32" fill="none" xmlns="http://www.w3.org/2000/svg">
<path d="M26.8 14.4C25.7 14.3 22.2 14.2 21.6 5.70005C21.6 5.20005 21.1 4.80005 20.6 4.80005C20.1 4.80005 19.6 5.20005 19.6 5.70005C19.2 13.9 15.6 14.2 14.4 14.4C13.9 14.4 13.5 14.9 13.5 15.4C13.5 15.9 13.9 16.3 14.4 16.4C17.6 16.9 19.3 19.7 19.7 25.1C19.7 25.6 20.2 26 20.7 26C21.2 26 21.7 25.6 21.7 25.1C22 19.7 23.7 16.9 26.9 16.4C27.4 16.3 27.8 15.9 27.8 15.4C27.7 14.8 27.3 14.4 26.8 14.4ZM20.6 19.5C19.9 17.6 18.9 16.3 17.5 15.4C18.9 14.6 19.9 13.2 20.6 11.3C21.3 13.2 22.3 14.6 23.6 15.4C22.3 16.3 21.3 17.7 20.6 19.5Z" fill="#737373"/>
<path d="M10.2 15.4C10.7 15.4 11.2 15 11.2 14.5C11.4 10.5 13.1 10.3 13.7 10.2C14.2 10.1 14.6 9.7 14.6 9.2C14.6 8.7 14.2 8.3 13.6 8.2C13.1 8.2 11.5 8.1 11.2 3.9C11.2 3.4 10.7 3 10.2 3C9.70005 3 9.20005 3.4 9.20005 3.9C9.00005 8 7.30005 8.2 6.70005 8.2C6.20005 8.2 5.80005 8.7 5.80005 9.2C5.80005 9.7 6.20005 10.1 6.70005 10.2C7.30005 10.3 8.90005 10.5 9.20005 14.5C9.20005 15 9.60005 15.4 10.2 15.4ZM10.2 8.1C10.5 8.6 10.8 9 11.1 9.3C10.8 9.6 10.5 10 10.2 10.4C9.90005 9.9 9.60005 9.5 9.20005 9.2C9.60005 9 9.90005 8.6 10.2 8.1Z" fill="#737373"/>
<path d="M15.9 22C15.4 22 13.9 21.9 13.7 17.9C13.7 17.4 13.2 17 12.7 17C12.2 17 11.7 17.4 11.7 17.9C11.5 21.7 9.9 21.9 9.4 21.9C8.9 22 8.5 22.4 8.5 22.9C8.5 23.4 8.9 23.8 9.4 23.9C9.9 24 11.5 24.2 11.7 28C11.7 28.5 12.2 28.9 12.7 28.9C13.2 28.9 13.7 28.5 13.7 28C13.9 24.2 15.5 24 16 23.9C16.5 23.8 16.9 23.4 16.9 22.9C16.9 22.4 16.4 22 15.9 22ZM12.7 24.1C12.5 23.7 12.2 23.4 11.9 23.1C12.2 22.8 12.5 22.5 12.7 22.1C12.9 22.5 13.2 22.9 13.5 23.1C13.2 23.3 12.9 23.7 12.7 24.1Z" fill="#737373"/>
</svg>
