<svg width="32" height="32" viewBox="0 0 32 32" fill="none" xmlns="http://www.w3.org/2000/svg">
<path d="M16 4.30005C9.4 4.30005 4 9.70005 4 16.3C4 22.9 9.4 28.3 16 28.3C22.6 28.3 28 22.9 28 16.3C28 9.70005 22.7 4.30005 16 4.30005ZM16 26.3C10.5 26.3 6 21.8 6 16.3C6 10.8 10.5 6.30005 16 6.30005C21.5 6.30005 26 10.8 26 16.3C26 21.8 21.5 26.3 16 26.3Z" fill="#737373"/>
<path d="M20 15.3H17V9.30005C17 8.70005 16.6 8.30005 16 8.30005C15.4 8.30005 15 8.70005 15 9.30005V16.3C15 16.9 15.4 17.3 16 17.3H20C20.6 17.3 21 16.9 21 16.3C21 15.7 20.6 15.3 20 15.3Z" fill="#737373"/>
</svg>
