<svg width="32" height="32" viewBox="0 0 32 32" fill="none" xmlns="http://www.w3.org/2000/svg">
<path d="M26.2 8.00004C26.1 7.10004 25.4 6.40004 24.6 6.40004C18.5 5.90004 14.1 7.10004 11.4 9.90004C8.79995 12.6 7.89995 16.9 8.59995 22.6L5.99995 25.1C5.59995 25.5 5.59995 26.1 5.99995 26.5C6.19995 26.7 6.49995 26.8 6.69995 26.8C6.89995 26.8 7.19995 26.7 7.39995 26.5L9.89995 24C11.1 24.1 12.2 24.2 13.3 24.2C17.3 24.2 20.4 23.2 22.6 21.1C25.5 18.5 26.7 14.1 26.2 8.00004ZM12.8 11.3C14.8 9.20004 18.1999 8.20004 22.7999 8.30004L18.3 12.8V11C18.3 10.4 17.9 10 17.3 10C16.7 10 16.3 10.4 16.3 11V14.8L14.8 16.3V13.1C14.8 12.5 14.4 12.1 13.8 12.1C13.2 12.1 12.8 12.5 12.8 13.1V18.3L10.3 20.8C10.1 16.5 10.9 13.3 12.8 11.3ZM21.3 19.8C19.3 21.7 16.1 22.6 11.8 22.3L14.3 19.8H19.5C20.1 19.8 20.5 19.4 20.5 18.8C20.5 18.2 20.1 17.8 19.5 17.8H16.3L17.8 16.3H21.6C22.2 16.3 22.6 15.9 22.6 15.3C22.6 14.7 22.2 14.3 21.6 14.3H19.8L24.2999 9.80004C24.4 14.4 23.5 17.7 21.3 19.8Z" fill="#737373"/>
</svg>
