<svg width="32" height="32" viewBox="0 0 32 32" fill="none" xmlns="http://www.w3.org/2000/svg">
<path d="M28.4 14.3C28.2 13.8 27.6 13.6 27.1 13.9L26.4 14.3C25.7 11.8 23.9 9.59998 21.6 8.29998C21.5 6.19998 19.7 4.59998 17.6 4.59998C15.7 4.59998 14.1 5.99998 13.7 7.79998C13.3 7.79998 13 7.99998 12.7 8.09998C10.7 7.09998 8.4 7.49998 8.3 7.49998C8 7.59998 7.8 7.79998 7.6 7.99998C7.5 8.19998 7.5 8.49998 7.6 8.79998L8.4 11.3C7.9 11.9 7.4 12.7 6.9 13.5H4.5C3.9 13.5 3.5 13.9 3.5 14.5V18.5C3.5 18.8 3.7 19.1 3.9 19.3L11.5 24.3L12.5 26.9C12.6 27.3 13 27.5 13.4 27.5H15.4C15.8 27.5 16.1 27.3 16.3 26.9L17.1 25.4L18.7 25.2L19.6 27C19.8 27.3 20.1 27.6 20.5 27.6H22.5C23 27.6 23.4 27.3 23.5 26.8L24.4 22.1C25.9 20.4 26.7 18.4 26.6 16.4C26.7 16.4 27.9 15.8 27.9 15.8C28.4 15.4 28.6 14.8 28.4 14.3ZM17.5 6.49998C18.6 6.49998 19.5 7.39998 19.5 8.49998C19.5 8.89998 19.4 9.29998 19.2 9.59998C18.1 9.19998 16.9 9.19998 15.8 9.59998C15.6 9.29998 15.5 8.89998 15.5 8.49998C15.5 7.39998 16.4 6.49998 17.5 6.49998ZM22.8 20.8C22.7 20.9 22.6 21.1 22.5 21.3L21.7 25.5H21.1L20.2 23.7C20 23.3 19.6 23.1 19.2 23.2L16.4 23.6C16.1 23.6 15.8 23.8 15.6 24.1L14.9 25.5H14.2L13.3 23.2C13.2 23 13.1 22.8 12.9 22.7L12.4 22.4C12.9 22 13.2 21.5 13.5 20.8C13.7 20.3 13.4 19.7 12.9 19.5C12.4 19.3 11.8 19.6 11.6 20.1C11.3 21 10.9 21.2 10.1 20.9L5.5 17.9V15.4H7.5C7.9 15.4 8.2 15.2 8.4 14.8C9 13.6 9.6 12.7 10.2 12.1C10.5 11.8 10.6 11.5 10.4 11.1L9.9 9.39998C10.6 9.39998 11.4 9.59998 12.1 10.1C12.4 10.3 12.8 10.3 13.2 10.1C13.4 9.99998 13.6 9.89998 13.8 9.79998C13.9 10.1 14 10.3 14.2 10.5C14.1 10.6 14 10.6 14 10.7C13.6 11.1 13.5 11.7 13.9 12.1C14.3 12.5 14.9 12.6 15.3 12.2C16.9 10.8 18.3 10.8 20 12.2C20.2 12.4 20.4 12.4 20.6 12.4C20.9 12.4 21.2 12.3 21.4 12C21.7 11.6 21.7 10.9 21.3 10.6C21.2 10.5 21.1 10.5 21.1 10.4C21.2 10.3 21.2 10.2 21.3 10.1C23.1 11.3 24.5 13.2 24.8 15.2C24.8 16.8 24.7 18.9 22.8 20.8Z" fill="#737373"/>
<path d="M11.5 15.5C12.0523 15.5 12.5 15.0523 12.5 14.5C12.5 13.9477 12.0523 13.5 11.5 13.5C10.9477 13.5 10.5 13.9477 10.5 14.5C10.5 15.0523 10.9477 15.5 11.5 15.5Z" fill="#737373"/>
</svg>
