<svg width="32" height="32" viewBox="0 0 32 32" fill="none" xmlns="http://www.w3.org/2000/svg">
<path d="M29 14C28.4 14 28 14.4 28 15V15.2H25.9C25.7 13.2 24.9 11.4 23.7 9.89995L25.5 8.09995C25.9 7.69995 25.9 7.09995 25.5 6.69995C25.1 6.29995 24.5 6.29995 24.1 6.69995L22.3 8.49995C20.8 7.29995 19 6.49995 17 6.29995V4.19995H17.2C17.8 4.19995 18.2 3.79995 18.2 3.19995C18.2 2.59995 17.8 2.19995 17.2 2.19995H14.8C14.2 2.19995 13.8 2.59995 13.8 3.19995C13.8 3.79995 14.2 4.19995 14.8 4.19995H15V6.29995C13 6.49995 11.2 7.29995 9.7 8.49995L7.9 6.69995C7.5 6.29995 6.9 6.29995 6.5 6.69995C6.1 7.09995 6.1 7.69995 6.5 8.09995L8.3 9.89995C7.1 11.4 6.3 13.2 6.1 15.2H4V15C4 14.4 3.6 14 3 14C2.4 14 2 14.4 2 15V17.4C2 18 2.4 18.4 3 18.4C3.6 18.4 4 18 4 17.4V17.2H6.1C6.3 19.2 7.1 21 8.3 22.5L6.5 24.2999C6.1 24.6999 6.1 25.3 6.5 25.7C6.7 25.9 6.9 26 7.2 26C7.5 26 7.7 25.9 7.9 25.7L9.7 23.9C11.2 25.1 13 25.9 15 26.1V28.2H14.8C14.2 28.2 13.8 28.6 13.8 29.2C13.8 29.8 14.2 30.2 14.8 30.2H17.2C17.8 30.2 18.2 29.8 18.2 29.2C18.2 28.6 17.8 28.2 17.2 28.2H17V26.1C19 25.9 20.8 25.1 22.3 23.9L24.1 25.7C24.3 25.9 24.6 26 24.8 26C25 26 25.3 25.9 25.5 25.7C25.9 25.3 25.9 24.6999 25.5 24.2999L23.7 22.5C24.9 21 25.7 19.2 25.9 17.2H28V17.4C28 18 28.4 18.4 29 18.4C29.6 18.4 30 18 30 17.4V15C30 14.4 29.6 14 29 14ZM16 24.2C11.6 24.2 8 20.6 8 16.2C8 11.8 11.6 8.19995 16 8.19995C20.4 8.19995 24 11.8 24 16.2C24 20.6 20.4 24.2 16 24.2Z" fill="#737373"/>
<path d="M17 11.2C14.8 11.2 13 13 13 15.2C13 17.4 14.8 19.2 17 19.2C19.2 19.2 21 17.4 21 15.2C21 13 19.2 11.2 17 11.2ZM17 17.2C15.9 17.2 15 16.3 15 15.2C15 14.1 15.9 13.2 17 13.2C18.1 13.2 19 14.1 19 15.2C19 16.3 18.1 17.2 17 17.2Z" fill="#737373"/>
</svg>
